<svg width="157" height="203" viewBox="0 0 157 203" fill="none" xmlns="http://www.w3.org/2000/svg">
    <path d="M135.682 172.478H29.766C26.6166 172.478 24.0632 169.924 24.0632 166.775V23.7985C24.0632 20.6491 26.6166 18.0957 29.766 18.0957H135.682C138.832 18.0957 141.385 20.6491 141.385 23.7985V166.775C141.386 169.925 138.832 172.478 135.682 172.478Z" fill="#F5F7F7"/>
    <path d="M19.9795 39.7694C30.9616 39.7694 39.8643 30.8667 39.8643 19.8847C39.8643 8.90268 30.9616 0 19.9795 0C8.99746 0 0.0947266 8.90268 0.0947266 19.8847C0.0947266 30.8667 8.99746 39.7694 19.9795 39.7694Z" fill="#1E1F32"/>
    <path d="M21.0248 32.0884H18.9345C18.1369 32.0884 17.4905 31.442 17.4905 30.6444V9.12365C17.4905 8.32607 18.1369 7.67969 18.9345 7.67969H21.0248C21.8224 7.67969 22.4688 8.32607 22.4688 9.12365V30.6444C22.4688 31.442 21.8224 32.0884 21.0248 32.0884Z" fill="white"/>
    <path d="M32.184 18.8385V20.9288C32.184 21.7264 31.5376 22.3728 30.74 22.3728H9.21911C8.42153 22.3728 7.77515 21.7264 7.77515 20.9288V18.8385C7.77515 18.0409 8.42153 17.3945 9.21911 17.3945H30.74C31.5376 17.3945 32.184 18.0409 32.184 18.8385Z" fill="white"/>
    <path d="M95.0037 53.5963C95.0037 54.9325 95.1782 56.2303 95.507 57.4639C96.275 60.3594 97.8828 62.9134 100.059 64.8437C100.201 64.9729 100.349 65.0989 100.498 65.2217C101.04 65.6734 101.618 66.0835 102.225 66.4515C102.489 66.6127 102.757 66.7677 103.032 66.9133C103.109 66.9555 103.187 66.9939 103.267 67.033C105.304 68.0662 107.613 68.647 110.053 68.647C110.886 68.647 111.703 68.579 112.5 68.4467C113.072 68.3566 113.63 68.2306 114.179 68.0756C115.997 67.559 117.672 66.7104 119.138 65.5997C119.49 65.332 119.829 65.0478 120.158 64.7505C120.71 64.2534 121.226 63.711 121.698 63.1364C121.859 62.9392 122.017 62.7364 122.166 62.5297C124.012 60.0311 125.103 56.9416 125.103 53.5969C125.103 45.2841 118.366 38.5469 110.053 38.5469C101.741 38.5462 95.0037 45.2835 95.0037 53.5963Z" fill="white"/>
    <path d="M106.848 49.1203C106.848 49.1203 104.291 46.1568 105.285 44.9169C106.278 43.6771 107.912 44.8331 107.912 44.8331C107.912 44.8331 107.955 43.4024 109.551 43.4988C111.147 43.5952 112.161 45.2609 112.161 45.2609C112.161 45.2609 113.516 43.8151 114.519 45.1859C115.523 46.5562 114.932 48.8633 114.932 48.8633C114.932 48.8633 116.033 48.6642 115.779 49.9721C115.526 51.2799 113.829 52.6741 113.829 52.6741L106.848 49.1203Z" fill="black"/>
    <path d="M112.385 53.7383L112.54 57.1674C112.54 57.1674 111.768 57.9303 109.769 58.1848C108.28 58.3745 107.987 57.6619 107.987 57.6619L108.068 56.5651L108.197 54.8622L111.783 53.9008L112.385 53.7383Z" fill="#E9B5A1"/>
    <path d="M111.783 53.9004C111.779 53.9943 111.748 54.1064 111.699 54.2355C111.009 55.9832 108.929 56.4481 108.069 56.5647L108.197 54.8618L111.783 53.9004Z" fill="black"/>
    <path d="M107.077 47.08C107.077 47.08 105.473 51.461 106.291 53.8178C107.109 56.1747 109.27 55.6637 110.549 55.1207C111.828 54.5776 112.386 53.7391 112.386 53.7391C112.386 53.7391 113.632 54.0786 114.379 52.8936C115.126 51.7086 114.544 50.4354 113.829 50.1796C113.114 49.9238 112.316 50.4769 112.316 50.4769L112.89 49.1974C112.89 49.1974 109.771 43.0606 107.077 47.08Z" fill="#E9B5A1"/>
    <path d="M112.519 52.31C112.482 52.31 112.446 52.2936 112.422 52.2627C112.379 52.2085 112.388 52.1304 112.442 52.0882L113.936 50.9076C113.991 50.8647 114.069 50.8748 114.111 50.9277C114.153 50.9819 114.144 51.06 114.09 51.1022L112.596 52.2829C112.573 52.3011 112.546 52.31 112.519 52.31Z" fill="black"/>
    <path d="M113.927 52.2259C113.902 52.2234 112.872 52.0073 112.872 52.0073C112.805 51.9934 112.761 51.9273 112.776 51.8605C112.79 51.7931 112.857 51.7496 112.923 51.7647L113.952 51.9802C114.02 51.994 114.063 52.0602 114.049 52.127C114.037 52.1856 113.984 52.2259 113.927 52.2259Z" fill="black"/>
    <path d="M109.942 48.9297C109.892 48.9297 109.846 48.9001 109.826 48.851C109.559 48.17 108.952 48.2928 108.927 48.2978C108.857 48.3111 108.793 48.2695 108.779 48.2027C108.765 48.1359 108.807 48.0698 108.874 48.0553C109.161 47.9929 109.782 48.0597 110.057 48.7603C110.083 48.8245 110.051 48.8963 109.988 48.9215C109.972 48.9272 109.957 48.9297 109.942 48.9297Z" fill="black"/>
    <path d="M106.692 48.7351C106.658 48.7351 106.624 48.7212 106.599 48.6941C106.553 48.6431 106.557 48.5643 106.608 48.5183C106.736 48.4024 107.128 48.0528 107.291 48.2279C107.339 48.2783 107.336 48.3564 107.286 48.4037C107.251 48.4358 107.203 48.4453 107.16 48.4308C107.129 48.4383 107.021 48.4805 106.775 48.7036C106.751 48.7243 106.721 48.7351 106.692 48.7351Z" fill="black"/>
    <path d="M107.418 51.9723C107.381 51.9723 107.346 51.9565 107.322 51.9263C106.76 51.2358 107.776 50.0678 107.819 50.0187C107.863 49.9676 107.943 49.962 107.994 50.0073C108.045 50.0527 108.05 50.1314 108.006 50.1825C107.748 50.4748 107.158 51.3309 107.515 51.7688C107.558 51.8223 107.55 51.9005 107.497 51.9433C107.473 51.9628 107.446 51.9723 107.418 51.9723Z" fill="black"/>
    <path d="M106.782 50.3831C106.688 50.3649 106.645 50.2987 106.661 50.2313L106.84 49.435C106.855 49.3688 106.919 49.3254 106.988 49.3411C107.055 49.3562 107.098 49.4224 107.082 49.4898L106.903 50.2861C106.89 50.3441 106.839 50.3831 106.782 50.3831Z" fill="black"/>
    <path d="M108.954 50.3267C108.86 50.3084 108.817 50.2423 108.833 50.1749L109.012 49.3786C109.026 49.3124 109.089 49.2683 109.16 49.2847C109.227 49.2998 109.269 49.3659 109.254 49.4334L109.075 50.2297C109.062 50.2876 109.011 50.3267 108.954 50.3267Z" fill="black"/>
    <path d="M106.76 48.0665C106.76 48.0665 107.101 47.3603 107.957 47.3156C108.812 47.2708 109.339 47.8504 109.339 47.8504C109.339 47.8504 109.029 49.3076 110.227 50.0201C111.425 50.7327 112.316 50.4775 112.316 50.4775L113.146 50.1386L113.709 48.8773L111.148 46.358L107.913 44.834L106.37 46.3687L106.76 48.0665Z" fill="black"/>
    <path d="M108.343 53.2999C108.254 53.2961 108.201 53.2375 108.205 53.1695C108.208 53.1014 108.267 53.0441 108.335 53.051C108.364 53.0554 109.051 53.0762 109.314 52.4399C109.341 52.3769 109.415 52.346 109.477 52.3731C109.54 52.3996 109.57 52.472 109.544 52.5357C109.241 53.2658 108.479 53.2999 108.343 53.2999Z" fill="black"/>
    <path d="M100.499 65.2204C101.041 65.6721 101.619 66.0823 102.225 66.4502C102.49 66.6115 102.758 66.7664 103.032 66.912C103.11 66.9542 103.187 66.9926 103.268 67.0317C105.305 68.0649 107.613 68.6457 110.054 68.6457C110.887 68.6457 111.703 68.5777 112.501 68.4454C113.072 68.3553 113.631 68.2293 114.18 68.0743C115.997 67.5577 117.672 66.7091 119.138 65.5984C119.491 65.3307 119.83 65.0465 120.158 64.7492C120.71 64.2521 121.227 63.7097 121.698 63.1351C121.859 62.9379 122.018 62.7351 122.166 62.5284C121.165 60.995 119.477 59.0389 116.952 58.0252C116.252 57.7474 115.5 57.5407 114.68 57.4342C114.631 57.4279 114.586 57.421 114.538 57.4179C114.464 57.4084 114.389 57.4015 114.319 57.3952C114.238 57.3857 114.177 57.382 114.115 57.3788C114.018 57.3725 113.925 57.3662 113.841 57.3624C113.638 57.346 113.431 57.3303 113.235 57.3234C107.63 57.1073 104.648 59.3312 104.473 59.4635C104.457 59.4729 104.447 59.4862 104.438 59.4988C104.383 59.5599 104.248 59.7054 104.05 59.9347C103.317 60.7821 101.757 62.7218 100.499 65.2204Z" fill="#90B0B2"/>
    <path d="M103.268 67.0327C105.305 68.0659 107.613 68.6468 110.054 68.6468C110.887 68.6468 111.703 68.5787 112.501 68.4464C113.072 68.3563 113.631 68.2303 114.18 68.0753C115.997 67.5587 117.672 66.7101 119.138 65.5994C118.509 61.7678 117.844 58.5945 117.327 58.2423C117.211 58.1648 117.085 58.0905 116.953 58.0262C116.262 57.6873 115.4 57.5191 114.68 57.4353C114.632 57.429 114.587 57.422 114.539 57.4189C114.464 57.4094 114.39 57.4025 114.319 57.3962C114.251 57.3899 114.181 57.3868 114.116 57.3798C114.019 57.3735 113.926 57.3672 113.842 57.3635C113.474 57.3439 113.238 57.3471 113.238 57.3471C113.219 57.1115 113.074 55.4457 112.622 55.481C112.141 55.5232 110.975 56.3233 109.742 56.4235C108.509 56.5237 107.847 56.414 107.602 56.414C107.353 56.414 107.301 57.7345 107.301 57.7345C107.301 57.7345 105.648 58.2965 104.473 59.4651C104.457 59.4746 104.447 59.4878 104.438 59.5004C104.383 59.5615 104.248 59.7071 104.05 59.9364C103.902 60.1235 103.773 60.3207 103.663 60.5336C103.316 61.2058 103.233 63.872 103.268 67.0327Z" fill="#90B0B2"/>
    <path d="M110.625 58.0205C110.42 58.0205 110.226 58.0035 110.053 57.9632C109.987 57.9474 109.945 57.8806 109.961 57.8139C109.976 57.7471 110.039 57.7049 110.11 57.7212C111.174 57.9695 113.174 57.2393 113.194 57.2324C113.259 57.2084 113.33 57.2418 113.354 57.3061C113.378 57.371 113.345 57.4422 113.281 57.4655C113.208 57.4913 111.757 58.0205 110.625 58.0205Z" fill="#F7B369"/>
    <path d="M87.7171 45.0895H30.0018C29.3258 45.0895 28.7783 44.542 28.7783 43.866C28.7783 43.19 29.3264 42.6426 30.0018 42.6426H87.7171C88.393 42.6426 88.9405 43.19 88.9405 43.866C88.9412 44.542 88.393 45.0895 87.7171 45.0895Z" fill="#7BB3B4"/>
    <path d="M87.7171 65.2165H30.0018C29.3258 65.2165 28.7783 64.6684 28.7783 63.993C28.7783 63.3176 29.3264 62.7695 30.0018 62.7695H87.7171C88.393 62.7695 88.9405 63.3176 88.9405 63.993C88.9405 64.6684 88.393 65.2165 87.7171 65.2165Z" fill="#7BB3B4"/>
    <path d="M81.0736 55.1546H29.802C29.1645 55.1546 28.6472 54.6373 28.6472 53.9998V53.8618C28.6472 53.2243 29.1645 52.707 29.802 52.707H81.0736C81.7112 52.707 82.2284 53.2243 82.2284 53.8618V53.9998C82.2284 54.6373 81.7112 55.1546 81.0736 55.1546Z" fill="#7BB3B4"/>
    <path d="M41.5307 89.4863H31.9377C30.5932 89.4863 29.5027 88.3964 29.5027 87.0514V77.4584C29.5027 76.114 30.5926 75.0234 31.9377 75.0234H41.5307C42.8751 75.0234 43.9657 76.1133 43.9657 77.4584V87.0514C43.9657 88.3958 42.8758 89.4863 41.5307 89.4863Z" fill="white"/>
    <path d="M41.5307 114.008H31.9377C30.5932 114.008 29.5027 112.918 29.5027 111.573V101.98C29.5027 100.635 30.5926 99.5449 31.9377 99.5449H41.5307C42.8751 99.5449 43.9657 100.635 43.9657 101.98V111.573C43.9657 112.918 42.8758 114.008 41.5307 114.008Z" fill="white"/>
    <path d="M41.5307 138.529H31.9377C30.5932 138.529 29.5027 137.439 29.5027 136.094V126.501C29.5027 125.156 30.5926 124.066 31.9377 124.066H41.5307C42.8751 124.066 43.9657 125.156 43.9657 126.501V136.094C43.9657 137.439 42.8758 138.529 41.5307 138.529Z" fill="white"/>
    <path d="M41.5307 163.051H31.9377C30.5932 163.051 29.5027 161.961 29.5027 160.616V151.023C29.5027 149.678 30.5926 148.588 31.9377 148.588H41.5307C42.8751 148.588 43.9657 149.678 43.9657 151.023V160.616C43.9657 161.96 42.8758 163.051 41.5307 163.051Z" fill="white"/>
    <path d="M36.1138 87.1167C35.8014 87.1167 35.5053 86.9743 35.31 86.7286L30.7594 81.0013C30.4066 80.5571 30.481 79.9114 30.9245 79.5586C31.3693 79.2064 32.0144 79.2807 32.3672 79.7236L36.0634 84.3762L41.065 77.2603C41.3907 76.7966 42.0308 76.6851 42.4951 77.0109C42.9588 77.3372 43.071 77.9773 42.7446 78.4409L36.9536 86.6801C36.7678 86.9447 36.4679 87.1066 36.1441 87.116C36.134 87.1167 36.1239 87.1167 36.1138 87.1167Z" fill="#68B6D8"/>
    <path d="M36.1138 111.734C35.8014 111.734 35.5053 111.591 35.31 111.346L30.7594 105.618C30.4066 105.174 30.481 104.528 30.9245 104.175C31.3693 103.823 32.0144 103.897 32.3672 104.341L36.0634 108.993L41.065 101.877C41.3907 101.414 42.0308 101.303 42.4951 101.628C42.9588 101.953 43.071 102.594 42.7446 103.058L36.9536 111.297C36.7678 111.562 36.4679 111.724 36.1441 111.733C36.134 111.733 36.1239 111.734 36.1138 111.734Z" fill="#68B6D8"/>
    <path d="M101.617 78.0815H50.9952C50.6431 78.0815 50.3577 77.7961 50.3577 77.4439V77.202C50.3577 76.8498 50.6431 76.5645 50.9952 76.5645H101.617C101.969 76.5645 102.254 76.8498 102.254 77.202V77.4439C102.254 77.7961 101.969 78.0815 101.617 78.0815Z" fill="#1E1F32"/>
    <path d="M110.517 83.0131H51.0482C50.667 83.0131 50.3577 82.7038 50.3577 82.3227V82.1866C50.3577 81.8054 50.667 81.4961 51.0482 81.4961H110.517C110.899 81.4961 111.208 81.8054 111.208 82.1866V82.3227C111.208 82.7044 110.899 83.0131 110.517 83.0131Z" fill="#1E1F32"/>
    <path d="M123.053 87.9467H51.1162C50.6972 87.9467 50.3577 87.6072 50.3577 87.1882C50.3577 86.7693 50.6972 86.4297 51.1162 86.4297H123.053C123.472 86.4297 123.812 86.7693 123.812 87.1882C123.812 87.6072 123.471 87.9467 123.053 87.9467Z" fill="#1E1F32"/>
    <path d="M101.617 151.644H50.9952C50.6431 151.644 50.3577 151.359 50.3577 151.006V150.765C50.3577 150.412 50.6431 150.127 50.9952 150.127H101.617C101.969 150.127 102.254 150.412 102.254 150.765V151.006C102.254 151.359 101.969 151.644 101.617 151.644Z" fill="#1E1F32"/>
    <path d="M110.517 156.578H51.0482C50.667 156.578 50.3577 156.268 50.3577 155.887V155.751C50.3577 155.37 50.667 155.061 51.0482 155.061H110.517C110.899 155.061 111.208 155.37 111.208 155.751V155.887C111.208 156.269 110.899 156.578 110.517 156.578Z" fill="#1E1F32"/>
    <path d="M123.053 161.509H51.1162C50.6972 161.509 50.3577 161.17 50.3577 160.751C50.3577 160.332 50.6972 159.992 51.1162 159.992H123.053C123.472 159.992 123.812 160.332 123.812 160.751C123.812 161.17 123.471 161.509 123.053 161.509Z" fill="#1E1F32"/>
    <path d="M101.617 102.601H50.9952C50.6431 102.601 50.3577 102.316 50.3577 101.963V101.722C50.3577 101.369 50.6431 101.084 50.9952 101.084H101.617C101.969 101.084 102.254 101.369 102.254 101.722V101.963C102.254 102.316 101.969 102.601 101.617 102.601Z" fill="#1E1F32"/>
    <path d="M110.517 107.535H51.0482C50.667 107.535 50.3577 107.225 50.3577 106.844V106.708C50.3577 106.327 50.667 106.018 51.0482 106.018H110.517C110.899 106.018 111.208 106.327 111.208 106.708V106.844C111.208 107.226 110.899 107.535 110.517 107.535Z" fill="#1E1F32"/>
    <path d="M102.127 112.468H50.9984C50.6443 112.468 50.3577 112.182 50.3577 111.827V111.592C50.3577 111.238 50.6443 110.951 50.9984 110.951H102.127C102.481 110.951 102.768 111.238 102.768 111.592V111.827C102.768 112.182 102.481 112.468 102.127 112.468Z" fill="#1E1F32"/>
    <path d="M117.002 127.123H51.0841C50.6827 127.123 50.3577 126.797 50.3577 126.396V126.332C50.3577 125.931 50.6827 125.605 51.0841 125.605H117.002C117.403 125.605 117.728 125.931 117.728 126.332V126.396C117.728 126.797 117.403 127.123 117.002 127.123Z" fill="#1E1F32"/>
    <path d="M104.678 132.057H51.0141C50.6519 132.057 50.3577 131.763 50.3577 131.4V131.196C50.3577 130.833 50.6513 130.539 51.0141 130.539H104.678C105.04 130.539 105.334 130.833 105.334 131.196V131.4C105.334 131.763 105.04 132.057 104.678 132.057Z" fill="#1E1F32"/>
    <path d="M113.296 136.988H51.0639C50.6739 136.988 50.3577 136.672 50.3577 136.282V136.177C50.3577 135.787 50.6739 135.471 51.0639 135.471H113.296C113.686 135.471 114.003 135.787 114.003 136.177V136.282C114.003 136.673 113.686 136.988 113.296 136.988Z" fill="#1E1F32"/>
    <path d="M121.581 202.965H123.725L127.115 195.436L119.815 199.2L121.581 202.965Z" fill="#87B1B3"/>
    <path d="M156.043 134.189C155.996 133.605 155.463 133.159 154.787 133.081C152.907 132.862 151.221 132.799 149.944 131.7C148.407 130.387 147.46 128.572 147.46 126.561V124.048C147.46 123.545 146.985 123.137 146.398 123.137H100.88C100.294 123.137 99.8181 123.544 99.8181 124.048V126.561C99.8181 130.243 96.6252 133.284 92.4911 133.765C91.8082 133.844 91.3118 134.361 91.2985 134.952C91.2784 135.819 91.2727 137.164 91.342 138.906C91.8095 150.648 95.7142 180.38 121.903 202.25C122.476 202.732 123.776 203.58 125.608 202.257C125.625 202.26 125.639 202.259 125.65 202.25C149.132 182.636 154.697 156.71 155.936 143.092C156.287 139.203 156.16 135.635 156.043 134.189Z" fill="#87B1B3"/>
    <path d="M153.9 134.873C153.853 134.29 153.319 133.844 152.643 133.765C150.763 133.546 149.077 132.799 147.801 131.7C146.264 130.387 145.316 128.572 145.316 126.561V124.048C145.316 123.545 144.841 123.137 144.254 123.137H98.7364C98.1498 123.137 97.6742 123.544 97.6742 124.048V126.561C97.6742 130.243 94.4813 133.284 90.3472 133.765C89.6643 133.844 89.1679 134.361 89.154 134.952C89.1339 135.819 89.1282 137.164 89.1975 138.906C89.6649 150.648 93.5697 180.38 119.758 202.25C120.331 202.732 121.631 203.58 123.463 202.257C123.48 202.26 123.495 202.259 123.506 202.25C146.988 182.636 152.553 156.71 153.792 143.092C154.143 139.203 154.016 136.319 153.9 134.873Z" fill="#87B1B3"/>
    <path d="M147.803 140.19C147.765 139.717 147.332 139.354 146.784 139.291C145.258 139.114 143.89 138.507 142.855 137.616C141.607 136.55 140.839 135.077 140.839 133.446V131.407C140.839 130.999 140.453 130.668 139.977 130.668H103.046C102.57 130.668 102.184 130.999 102.184 131.407V133.446C102.184 136.433 99.5932 138.901 96.239 139.291C95.6852 139.355 95.282 139.774 95.2713 140.253C95.2549 140.956 95.2505 142.048 95.3066 143.461C95.6859 152.989 98.8542 177.112 120.102 194.857C120.567 195.248 121.622 195.936 123.109 194.862C123.123 194.865 123.134 194.864 123.143 194.857C142.195 178.943 146.71 157.907 147.715 146.858C148 143.703 147.897 141.363 147.803 140.19Z" fill="#E2E9E9"/>
    <path d="M133.992 144.693C130.483 143.124 125.532 145.765 121.582 150.841C117.631 145.765 112.68 143.124 109.171 144.693C104.614 146.732 104.219 155.096 108.288 163.376C111.152 169.201 115.461 173.429 119.352 174.716C120.047 175.009 120.796 175.144 121.582 175.127C122.368 175.144 123.116 175.009 123.811 174.716C127.702 173.429 132.011 169.202 134.874 163.376C138.944 155.096 138.549 146.732 133.992 144.693Z" fill="#87B1B3"/>
    <path d="M119.026 170.339C118.863 170.339 118.723 170.224 118.691 170.064L115.477 153.857L112.969 163.14C112.929 163.289 112.794 163.392 112.639 163.392H105.477C105.288 163.392 105.135 163.239 105.135 163.05C105.135 162.861 105.288 162.708 105.477 162.708H112.377L115.198 152.267C115.239 152.114 115.375 152.006 115.541 152.014C115.699 152.02 115.833 152.134 115.865 152.29L118.99 168.052L120.818 156.561C120.842 156.41 120.963 156.293 121.115 156.275C121.269 156.257 121.413 156.343 121.471 156.483L124.063 162.71H138.797C138.986 162.71 139.139 162.863 139.139 163.052C139.139 163.241 138.986 163.394 138.797 163.394H123.835C123.696 163.394 123.572 163.311 123.519 163.183L121.304 157.862L119.365 170.052C119.339 170.215 119.199 170.337 119.034 170.34C119.031 170.34 119.028 170.339 119.026 170.339Z" fill="white"/>
    </svg>
    