<svg width="237" height="207" viewBox="0 0 237 207" fill="none" xmlns="http://www.w3.org/2000/svg">
    <path d="M157.288 184.045C157.968 184.073 158.641 183.916 159.216 183.597C159.792 183.277 160.241 182.811 160.504 182.26C160.766 181.709 160.829 181.101 160.685 180.517C160.54 179.934 160.194 179.404 159.694 178.998L159.467 178.205C159.497 178.142 159.527 178.078 159.557 178.015C160.242 176.595 161.39 175.385 162.857 174.537C164.324 173.688 166.044 173.238 167.801 173.244C169.559 173.249 171.275 173.71 172.734 174.569C174.194 175.427 175.332 176.645 176.005 178.068C178.695 183.75 182.12 189.442 182.963 195.45C183.334 198.105 183.178 200.797 182.5 203.406C188.818 191.319 192.099 178.181 192.12 164.885C192.122 161.548 191.91 158.214 191.487 154.898C191.138 152.18 190.652 149.481 190.032 146.801C186.645 132.261 179.374 118.633 168.816 107.037C163.706 104.591 159.573 100.831 156.975 96.2627C156.034 94.6205 155.369 92.8674 155 91.058C155.576 91.1243 157.174 83.425 156.739 82.9527C157.542 81.8836 158.98 81.3521 159.857 80.3089C164.221 75.1206 170.233 76.0265 173.371 83.077C180.076 86.0445 180.14 90.9659 176.027 95.6991C173.409 98.7104 173.05 102.785 170.753 106.009C170.99 106.274 171.235 106.531 171.472 106.796C175.79 111.667 179.555 116.896 182.71 122.411C181.943 116.233 182.858 109.984 185.382 104.177C187.94 98.766 192.734 94.2085 196.956 89.5303C198.073 88.2736 199.589 87.3355 201.314 86.8344C203.038 86.3334 204.894 86.292 206.645 86.7154C208.396 87.1388 209.965 88.0081 211.153 89.2133C212.341 90.4186 213.095 91.9057 213.32 93.4867C213.329 93.5557 213.337 93.6246 213.345 93.6936C212.718 94.0038 212.104 94.3331 211.504 94.6814C210.749 95.1235 210.165 95.7552 209.826 96.4937C209.488 97.2322 209.412 98.0431 209.609 98.82C209.805 99.597 210.264 100.304 210.926 100.848C211.589 101.392 212.423 101.748 213.32 101.869L213.412 101.882C213.188 103.864 212.793 105.828 212.23 107.758C217.646 126.127 205.953 132.817 189.257 133.118C188.888 133.284 188.529 133.45 188.161 133.607C191.331 141.486 193.32 149.694 194.076 158.023C194.505 162.936 194.48 167.873 194.001 172.783L194.029 172.609C195.239 167.149 198.56 162.222 203.432 158.661C210.668 153.448 220.891 151.528 228.698 147.338C229.528 146.871 230.492 146.621 231.478 146.619C232.464 146.617 233.43 146.862 234.262 147.326C235.095 147.79 235.758 148.452 236.175 149.236C236.592 150.019 236.745 150.891 236.615 151.748L236.583 151.931C235.42 152.347 234.287 152.826 233.191 153.365C232.564 153.675 231.95 154.004 231.349 154.353C230.595 154.795 230.01 155.427 229.672 156.165C229.334 156.904 229.258 157.714 229.454 158.491C229.65 159.268 230.11 159.975 230.772 160.519C231.434 161.063 232.268 161.419 233.165 161.541L233.257 161.553C233.323 161.561 233.38 161.57 233.446 161.578C231.457 165.742 228.667 169.574 225.196 172.907C221.809 188.943 207.264 190.464 191.704 185.795H191.695C189.988 192.3 187.514 198.633 184.314 204.69H157.948C157.854 204.434 157.769 204.168 157.684 203.911C160.124 204.046 162.574 203.918 164.979 203.53C163.023 201.425 161.067 199.304 159.111 197.199C159.067 197.159 159.026 197.118 158.988 197.074C157.996 195.997 156.994 194.928 156.002 193.85L156.001 193.849C155.948 190.547 156.381 187.251 157.288 184.045Z" fill="#CCCCCC"/>
    <path d="M163.798 23.3653C161.387 22.1007 157.589 27.3864 155.534 26.157C153.486 24.9321 156.545 19.2577 155.393 11.3114C155.185 9.87838 153.876 0.848045 150.237 0.0556451C143.338 -1.44635 134.137 27.9687 123.734 26.6097C121.451 26.3115 118.868 24.4995 111.796 23.3317C108.982 22.8671 107.431 22.8303 106.524 23.7586C105.237 25.0757 106.371 27.1855 107.207 32.193C108.461 39.7026 106.791 40.2318 108.317 45.8989C109.45 50.1058 110.966 52.0237 109.969 53.1936C108.559 54.8491 104.613 52.0777 102.589 53.7912C100.523 55.5399 101.852 60.779 103.443 64.3343C106.428 71.006 111.202 73.6802 115.096 77.1864C119.327 80.9967 124.496 87.5713 127.517 99.5271L150.487 206.622C146.259 184.347 135.732 122.631 132.788 99.1002C131.939 92.3073 131.294 85.2832 135.469 79.7814C139.488 74.4843 147.489 71.2364 155.36 63.3136C156.279 62.3883 158.804 59.7801 158.095 57.7859C157.51 56.1373 155.247 56.4102 154.676 54.8792C153.912 52.8256 157.363 50.6677 160.319 45.9325C162.404 42.5935 163.183 39.6703 163.853 37.1566C164.055 36.3987 167.006 25.0487 163.798 23.3653Z" fill="#CCCCCC"/>
    <path d="M69.6058 145.252C68.2896 146.07 69.788 149.459 68.5916 150.113C67.3996 150.764 65.4971 147.626 61.2646 145.899C60.5014 145.587 55.6914 143.624 54.2524 145.182C51.5249 148.134 63.3069 161.138 59.6386 165.851C58.8336 166.885 57.1988 167.631 54.585 170.765C53.5452 172.012 53.0796 172.762 53.2735 173.475C53.5487 174.487 54.9114 174.539 57.6102 175.574C61.6577 177.125 61.4355 178.098 64.6574 178.984C67.0491 179.641 68.4277 179.451 68.7143 180.277C69.1199 181.447 66.6213 182.584 66.8782 184.072C67.1405 185.59 70.0952 186.45 72.2991 186.695C76.4351 187.155 79.125 185.583 81.9693 184.684C85.0603 183.707 89.7787 183.066 96.5183 185.034L155.709 204.66C143.556 200.308 110.228 187.668 97.8297 182.323C94.2505 180.78 90.6171 179.07 89.1213 175.433C87.6811 171.932 88.3957 167.068 86.7779 160.919C86.589 160.201 86.0376 158.209 84.8543 157.982C83.8761 157.794 83.3571 158.983 82.4412 158.821C81.2126 158.604 81.1492 156.287 79.6782 153.47C78.6409 151.483 77.431 150.258 76.3906 149.203C76.0769 148.886 71.3578 144.162 69.6058 145.252Z" fill="#CCCCCC"/>
    <path d="M99.5661 134.938L94.3981 128.333L94.4298 127.571C94.5772 124.048 93.9367 121.091 92.5258 118.779C92.3016 118.411 92.0585 118.055 91.8112 117.692C90.8305 116.254 89.6109 114.467 89.2484 111.731C89.0494 110.204 88.8541 106.504 91.3368 105.447C92.0011 105.156 92.6368 105.152 93.1907 105.264C93.1914 105.15 93.1938 105.035 93.1954 104.911C93.2378 103.396 93.5129 102.588 93.778 101.81C93.9814 101.212 94.1922 100.595 94.3484 99.3455C94.4171 98.7973 94.4482 98.3338 94.475 97.9438C94.5579 96.7628 94.7235 95.3134 96.0874 94.4965C97.5754 93.6739 99.0695 94.4029 100.059 94.885C101.825 95.7444 102.858 96.5117 103.543 97.0209C103.793 97.2074 104.075 97.4163 104.185 97.4671C105.073 97.8651 108.466 94.89 109.749 93.7776C112.625 91.2677 115.113 89.0959 117.502 90.413C119.211 91.3542 119.782 93.6408 119.235 97.3954C119.065 98.5643 118.739 99.5735 118.412 100.409C119.103 100.399 119.84 100.582 120.471 101.196C121.963 102.65 121.547 105.284 119.24 109.032C118.669 109.965 117.897 111.217 116.496 112.453C115.836 113.035 115.19 113.476 114.632 113.843C114.823 114.179 114.965 114.583 114.991 115.073C115.069 116.515 114.162 117.783 112.243 118.795C110.149 119.939 108.24 120.581 106.558 121.15C105.09 121.648 103.827 122.081 102.993 122.676C101.46 123.801 101.012 125.859 100.585 128.434L99.5661 134.938Z" fill="#CCCCCC"/>
    <path d="M77.2157 90.4192L72.137 97.0937L71.3922 97.2563C67.9469 98.0072 65.2491 99.3769 63.3704 101.328C63.0717 101.638 62.789 101.964 62.5007 102.295C61.3586 103.608 59.9394 105.241 57.3848 106.286C55.958 106.866 52.429 107.993 50.7765 105.86C50.3263 105.291 50.161 104.677 50.1293 104.113C50.019 104.141 49.9072 104.168 49.7869 104.198C48.3104 104.541 47.4593 104.48 46.6395 104.421C46.0094 104.376 45.3592 104.328 44.1106 104.494C43.5629 104.567 43.1067 104.654 42.7227 104.727C41.5593 104.947 40.1152 105.154 38.9791 104.042C37.806 102.811 38.1322 101.181 38.3475 100.102C38.7308 98.1754 39.211 96.9815 39.5298 96.1898C39.6469 95.901 39.7773 95.5748 39.7987 95.4562C39.9584 94.496 36.2201 91.9689 34.8185 91.0096C31.6613 88.8646 28.9293 87.0085 29.5976 84.364C30.0743 82.4713 32.1414 81.3398 35.9118 80.9157C37.0858 80.7843 38.1447 80.8436 39.0353 80.948C38.8503 80.282 38.8411 79.5221 39.2744 78.7562C40.3023 76.9445 42.9562 76.6789 47.1663 77.9596C48.2141 78.2752 49.6205 78.7048 51.172 79.746C51.9022 80.237 52.492 80.7498 52.9893 81.1965C53.2662 80.9267 53.6207 80.6864 54.0883 80.5374C55.4629 80.0968 56.9191 80.6519 58.3855 82.2516C60.023 83.9867 61.1284 85.6702 62.1053 87.1532C62.9597 88.4469 63.6987 89.5583 64.4855 90.2145C65.9625 91.4125 68.0668 91.3234 70.6658 91.0832L77.2157 90.4192Z" fill="#CCCCCC"/>
    <path d="M60.6452 71.7877L55.4772 65.1821L55.5089 64.4204C55.6563 60.8973 55.0158 57.9403 53.6049 55.6282C53.3807 55.2605 53.1376 54.9045 52.8903 54.5416C51.9096 53.1038 50.69 51.3168 50.3275 48.5808C50.1285 47.0536 49.9332 43.354 52.4159 42.2966C53.0802 42.0054 53.7159 42.0012 54.2698 42.1137C54.2705 41.9998 54.2729 41.8848 54.2745 41.7609C54.3169 40.2456 54.592 39.4379 54.8571 38.6599C55.0605 38.0618 55.2713 37.445 55.4275 36.1951C55.4962 35.647 55.5273 35.1834 55.5541 34.7934C55.637 33.6125 55.8026 32.163 57.1665 31.3461C58.6545 30.5235 60.1486 31.2525 61.1383 31.7346C62.9043 32.594 63.9374 33.3613 64.6223 33.8705C64.872 34.057 65.1544 34.2659 65.2637 34.3167C66.152 34.7147 69.5447 31.7397 70.828 30.6272C73.7037 28.1173 76.1922 25.9455 78.5806 27.2627C80.2906 28.2038 80.8607 30.4904 80.3145 34.245C80.1438 35.4139 79.818 36.4232 79.4911 37.2581C80.1823 37.2482 80.9195 37.432 81.5506 38.0453C83.0423 39.4992 82.6261 42.1337 80.3194 45.8813C79.7482 46.8148 78.9759 48.0661 77.5753 49.3028C76.9151 49.8846 76.2694 50.3252 75.7113 50.6928C75.902 51.0291 76.0445 51.4329 76.07 51.923C76.1476 53.3644 75.2412 54.6321 73.3219 55.6448C71.2282 56.7887 69.3194 57.431 67.6371 57.9998C66.169 58.498 64.9065 58.931 64.0722 59.5256C62.5388 60.6503 62.0911 62.7085 61.6642 65.2834L60.6452 71.7877Z" fill="#CCCCCC"/>
    <path d="M152.792 205.042L150.73 205.026L149.119 206.293C148.992 206.149 148.67 205.837 148.171 205.346C145.44 202.652 137.124 194.455 125.779 180.466C117.86 170.701 110.355 160.269 103.469 149.456C96.5715 138.626 91.9893 130.033 88.3053 123.128C85.5274 117.919 82.9642 112.908 80.47 108.025C73.8027 94.9832 67.5033 82.6644 58.7947 70.0955C56.8521 67.2885 52.8055 61.4479 45.3153 57.1954C40.9707 54.7295 36.1113 53.1577 30.873 52.5285L31.3654 48.4336C37.1501 49.1326 42.529 50.8759 47.3531 53.6136C55.6578 58.3285 60.0671 64.6925 62.1857 67.7503C71.0477 80.5414 77.4066 92.9796 84.1375 106.148C86.6244 111.012 89.175 116.002 91.9419 121.189C95.5914 128.031 100.134 136.549 106.943 147.239C113.746 157.924 121.16 168.227 128.978 177.871C140.18 191.682 148.373 199.756 151.065 202.409C152.501 203.826 152.802 204.123 152.792 205.042Z" fill="#CCCCCC"/>
    <path d="M27.8744 62.0694C27.7305 62.1581 27.5828 62.2444 27.4291 62.3249C24.3423 64.0052 20.4735 63.9219 15.9297 62.0799C13.7961 61.2107 12.0906 59.7705 8.68924 56.8981C8.16387 56.4561 5.53733 54.1888 2.60779 50.6475C0.692688 48.3342 0.0847864 47.2481 0.0102464 46.0034C-0.0749336 44.6187 0.378479 43.337 1.09065 42.2221C0.839179 41.9137 0.661849 41.5456 0.589989 41.1029C0.286189 39.2715 1.99416 38.4836 2.91113 38.0461C3.38002 37.8327 3.9674 37.57 4.53427 37.178C5.42845 36.5655 5.7546 35.9862 6.25149 35.1127C6.72643 34.2763 7.31696 33.2363 8.47435 32.1495C10.7493 29.9957 13.393 29.3875 14.2641 29.1863C18.8376 28.1119 22.5264 29.9089 26.7969 31.9902C27.651 32.4093 30.67 33.9902 33.7555 36.8066C35.9816 38.8385 36.558 39.9961 36.8481 40.9424C37.449 42.8838 37.021 44.4713 35.7375 48.184C34.4005 52.0667 33.728 54.013 32.9791 55.4059C31.2323 58.6429 30.1356 60.6758 27.8744 62.0694Z" fill="#CCCCCC"/>
    </svg>
    