<svg width="535" height="473" viewBox="0 0 535 473" fill="none" xmlns="http://www.w3.org/2000/svg">
    <path d="M67.2909 430.218C67.1649 430.589 437.456 431.131 449.622 431.148C449.823 431.148 450.018 431.093 450.187 430.991C492.484 404.949 513.076 356.558 509.508 311.898C496.617 147.997 440.739 255.146 371.044 98.9902C307.715 -22.1992 25.6759 97.6315 75.6254 238.516C75.6787 238.665 75.6916 238.825 75.6644 238.98C71.3185 263.267 54.5158 277.96 36.0618 304.602C36.041 304.633 36.0215 304.663 36.0046 304.696C12.4512 347.949 22.3551 405.643 67.2909 430.218ZM396.332 159.913C416.355 197.958 475.861 198.949 492.094 237.914C492.558 239.029 490.87 239.772 490.247 238.73C467.742 201.112 431.279 202.485 404.429 179.587C369.564 149.854 372.394 105.816 350.379 81.3301C349.597 80.4609 350.986 79.0778 351.77 79.9445C382.303 113.599 381.261 132.049 396.332 159.913ZM36.4334 308.213C51.5757 285.047 68.2147 268.807 75.0563 248.389C75.4188 247.308 77.1221 247.607 77.0506 248.738C75.133 278.983 21.3872 301.696 29.0668 371.426C29.2033 372.66 27.2518 372.906 27.044 371.682C23.4776 350.665 27.8404 327.53 36.358 308.353C36.3788 308.305 36.4048 308.257 36.4334 308.213Z" fill="#DDE9E9"/>
    <path d="M156.48 76.8223C117.868 90.8007 80.3088 128.709 72.8279 164.133C85.1925 124.851 122.894 94.9133 156.48 76.8223Z" fill="#DDE9E9"/>
    <path d="M534.842 443.438C534.842 459.765 415.114 473.001 267.421 473.001C119.728 473.001 0 459.765 0 443.438C0 427.111 119.728 413.875 267.421 413.875C415.114 413.875 534.842 427.111 534.842 443.438Z" fill="#7BB3B4"/>
    <path d="M36.8248 443.348L36.6458 443.035C36.6646 443.022 38.5064 441.605 38.7604 439.954C38.8483 439.381 38.7315 438.838 38.4125 438.341C38.1901 437.995 37.9221 437.826 37.5928 437.826C37.5876 437.826 37.5824 437.826 37.5769 437.826C35.9794 437.852 33.6634 441.651 33.6402 441.689L33.2191 442.385L33.3468 441.55C33.352 441.516 33.8517 438.158 32.8349 437.156C32.5183 436.844 32.067 436.799 31.4934 437.025C30.89 437.261 30.4708 437.695 30.2474 438.314C29.5804 440.16 30.7999 443.081 30.8122 443.11L30.5202 443.274C30.467 443.149 29.2243 440.173 29.9472 438.171C30.208 437.448 30.693 436.944 31.3888 436.67C32.0787 436.4 32.6371 436.467 33.0467 436.872C33.8934 437.707 33.8454 439.781 33.7496 440.892C34.4973 439.778 36.207 437.475 37.5728 437.452C38.0171 437.448 38.386 437.67 38.6748 438.118C39.0489 438.702 39.1856 439.342 39.0808 440.02C38.8014 441.83 36.9056 443.287 36.8248 443.348Z" fill="#42428E"/>
    <path d="M479.752 452.096C479.672 451.015 479.328 450.244 478.729 449.805C477.415 448.842 475.283 449.726 475.261 449.735L474.52 450.049L475.05 449.374C475.065 449.355 476.58 447.408 476.269 445.996C476.151 445.461 475.768 445.059 475.13 444.801C472.442 443.715 470.243 450.019 470.136 450.331C470.134 450.338 470.132 450.343 470.131 450.346L469.769 450.182C469.77 450.179 469.771 450.176 469.772 450.171C469.809 450.06 470.211 448.784 469.72 447.907C469.419 447.369 468.832 447.072 467.975 447.026C467.174 446.981 466.619 447.198 466.327 447.668C465.765 448.573 466.302 450.163 466.308 450.18L465.946 450.345C465.921 450.271 465.325 448.514 466.009 447.409C466.383 446.806 467.047 446.526 467.993 446.578C468.985 446.633 469.676 446.998 470.048 447.666C470.234 447.999 470.317 448.367 470.343 448.721C471.224 446.72 473.039 443.481 475.258 444.378C476.027 444.689 476.494 445.196 476.646 445.887C476.898 447.029 476.202 448.37 475.73 449.112C476.518 448.896 477.913 448.676 478.938 449.428C479.645 449.946 480.049 450.831 480.14 452.059L479.752 452.096Z" fill="#42428E"/>
    <path d="M350.433 459.166C350.297 459.071 347.093 456.831 347.093 454.866C347.093 454.259 347.388 453.748 347.969 453.346C348.608 452.904 349.271 452.797 349.942 453.03C351.564 453.594 352.737 455.965 353.049 456.655C354.7 455.524 355.93 455.25 356.704 455.84C357.812 456.683 357.536 458.937 357.524 459.032L357.202 458.978C357.205 458.956 357.46 456.863 356.525 456.152C355.841 455.633 354.677 455.944 353.067 457.079L352.913 457.188L352.835 457C352.823 456.97 351.573 453.987 349.848 453.388C349.27 453.188 348.693 453.282 348.136 453.667C347.654 454.001 347.419 454.393 347.419 454.866C347.419 456.621 350.57 458.823 350.601 458.845L350.433 459.166Z" fill="#42428E"/>
    <path d="M243.579 463.603C243.566 463.588 242.295 462.087 241.255 460.193C239.836 457.607 239.497 455.554 240.25 454.092C240.531 453.546 240.871 453.297 241.253 453.345C242.554 453.516 243.98 457.417 244.718 459.741C244.474 456.838 244.196 451.1 245.576 449.16C245.876 448.737 246.243 448.508 246.665 448.478C247.078 448.447 247.415 448.619 247.67 448.983C248.914 450.757 247.789 457.023 247.171 459.955C247.632 459.095 248.286 458.136 248.954 458.026C249.271 457.975 249.522 458.11 249.664 458.409C250.067 459.262 249.51 461.434 247.881 463.595L247.635 463.35C249.237 461.225 249.677 459.219 249.378 458.588C249.302 458.427 249.182 458.368 249 458.397C248.141 458.538 247.137 460.685 246.823 461.501L246.518 461.375C246.542 461.275 248.919 451.361 247.416 449.219C247.228 448.951 246.988 448.832 246.684 448.852C246.351 448.875 246.071 449.053 245.827 449.397C244.079 451.854 245.198 461.304 245.21 461.399L244.894 461.482C244.315 459.38 242.524 453.889 241.216 453.717C240.966 453.685 240.742 453.869 240.529 454.283C238.878 457.491 243.761 463.283 243.811 463.341L243.579 463.603Z" fill="#42428E"/>
    <path d="M130.523 451.642C130.523 451.642 125.694 445.973 127.356 442.744C129.017 439.515 131.821 449.68 131.821 449.68C131.821 449.68 130.368 437.66 133.379 437.452C136.391 437.243 133.379 449.68 133.379 449.68C133.379 449.68 134.496 446.78 135.586 446.601C136.676 446.421 136.365 449.059 134.418 451.642H130.523V451.642Z" fill="#BED5DC"/>
    <path d="M130.867 451.786C130.64 451.519 125.317 445.201 127.249 441.447C127.555 440.854 127.92 440.58 128.339 440.636C129.172 440.745 130.151 442.26 131.247 445.137C131.581 446.014 131.877 446.89 132.109 447.614C131.843 444.468 131.534 438.2 133.038 436.085C133.365 435.626 133.763 435.377 134.222 435.345C134.671 435.315 135.037 435.499 135.315 435.893C136.667 437.821 135.444 444.633 134.773 447.82C135.274 446.885 135.985 445.843 136.711 445.723C137.054 445.668 137.328 445.815 137.482 446.14C137.92 447.066 137.315 449.428 135.544 451.776L135.277 451.51C137.018 449.201 137.496 447.02 137.172 446.334C137.089 446.16 136.958 446.093 136.761 446.126C135.826 446.28 134.736 448.614 134.394 449.5L134.062 449.363C134.069 449.336 134.729 446.596 135.172 443.596C135.751 439.674 135.706 437.099 135.039 436.149C134.835 435.858 134.575 435.726 134.243 435.751C133.882 435.776 133.577 435.97 133.311 436.343C131.412 439.014 132.628 449.287 132.641 449.39L132.297 449.48C131.667 447.195 129.721 441.227 128.299 441.04C128.026 441.003 127.784 441.206 127.553 441.655C125.758 445.142 131.066 451.438 131.119 451.501L130.867 451.786Z" fill="#42428E"/>
    <path d="M302.147 435.97C302.133 435.955 300.782 434.36 299.677 432.346C298.168 429.598 297.809 427.416 298.609 425.862C298.907 425.282 299.265 425.014 299.675 425.068C300.489 425.176 301.446 426.656 302.518 429.47C302.844 430.327 303.133 431.183 303.36 431.892C303.1 428.816 302.798 422.687 304.269 420.62C304.588 420.17 304.978 419.926 305.427 419.895C305.865 419.867 306.223 420.046 306.495 420.432C307.817 422.317 306.622 428.977 305.965 432.093C306.455 431.179 307.15 430.16 307.86 430.043C308.196 429.989 308.464 430.133 308.614 430.45C309.042 431.356 308.451 433.665 306.719 435.962L306.458 435.701C308.161 433.443 308.628 431.312 308.31 430.641C308.23 430.47 308.103 430.405 307.909 430.437C306.995 430.588 305.929 432.87 305.595 433.736L305.271 433.602C305.277 433.576 305.923 430.896 306.356 427.963C306.922 424.128 306.877 421.611 306.226 420.682C306.026 420.398 305.77 420.271 305.448 420.293C305.094 420.318 304.796 420.506 304.536 420.872C302.679 423.483 303.869 433.527 303.881 433.628L303.545 433.716C302.929 431.483 301.025 425.647 299.635 425.464C299.37 425.428 299.132 425.626 298.906 426.065C297.151 429.475 302.341 435.63 302.393 435.692L302.147 435.97Z" fill="#42428E"/>
    <g opacity="0.6">
    <path d="M250.99 355.486C250.99 355.486 318.099 159.581 372.603 179.118C427.107 198.655 297.437 300.794 279.777 358.42L250.99 355.486Z" fill="#B2C9C6"/>
    </g>
    <path d="M262.233 383.495C262.233 383.495 341.183 280.056 375.683 302.774C410.182 325.493 301.045 366.763 279.263 397.611L262.233 383.495Z" fill="#8CBFCB"/>
    <path d="M273.071 387.831C287.713 366.263 311.196 347.861 328.317 336.221C346.879 323.602 362.161 315.997 362.313 315.922L361.824 315.006C361.672 315.081 346.323 322.719 327.7 335.379C310.503 347.071 286.91 365.563 272.177 387.267L273.071 387.831Z" fill="#87B1B3"/>
    <path d="M126.262 186.404C122.921 187.973 121.41 187.417 120.772 186.156C120.134 184.895 120.61 183.406 123.951 181.837C130.036 178.981 134.133 179.883 134.133 179.883C134.133 179.883 132.436 183.506 126.262 186.404Z" fill="#B2C9C6"/>
    <path d="M124.243 209.518C121.609 212.044 119.992 211.988 118.965 210.994C117.937 210 117.888 208.442 120.522 205.917C125.32 201.317 129.499 200.895 129.499 200.895C129.499 200.895 129.111 204.852 124.243 209.518Z" fill="#B2C9C6"/>
    <path d="M117.922 269.596L117.228 269.485C117.246 269.383 118.968 259 116.554 243.423C114.326 229.051 108.022 207.19 90.6317 184.662L91.1963 184.258C108.682 206.91 115.018 228.897 117.254 243.353C119.679 259.027 117.94 269.492 117.922 269.596Z" fill="#B2C9C6"/>
    <path d="M107.848 212.305L107.287 211.897C122.684 192.265 116.426 166.566 116.361 166.309L117.044 166.148C117.11 166.409 123.45 192.413 107.848 212.305Z" fill="#B2C9C6"/>
    <path d="M98.1701 200.557C91.0472 200.026 85.9405 196.189 85.8822 196.144L86.3192 195.613C86.3841 195.663 92.9293 200.569 101.456 199.873L101.516 200.548C100.362 200.642 99.2427 200.637 98.1701 200.557Z" fill="#B2C9C6"/>
    <path d="M117.966 254.288C103.689 251.635 92.5602 243.999 84.8885 231.592C84.6226 231.162 84.3716 230.756 84.2935 230.681C84.2944 230.682 84.3171 230.704 84.3625 230.722L84.6355 230.098C84.827 230.175 84.9374 230.347 85.4925 231.245C93.0574 243.479 104.027 251.008 118.099 253.623L117.966 254.288Z" fill="#B2C9C6"/>
    <path d="M98.1816 245.495L97.5185 245.268C100.719 236.605 95.6399 223.135 95.5884 223L96.248 222.766C96.2609 222.8 97.5716 226.248 98.4598 230.738C99.2828 234.897 99.9032 240.835 98.1816 245.495Z" fill="#B2C9C6"/>
    <path d="M90.4659 180.862C93.9166 184.363 94.0868 186.187 93.0308 187.153C91.9744 188.119 90.0918 187.861 86.6408 184.36C80.3548 177.984 79.2293 173.152 79.2293 173.152C79.2293 173.152 84.0883 174.393 90.4659 180.862Z" fill="#B2C9C6"/>
    <path d="M87.938 194.099C92.3239 196.435 93.0573 198.125 92.3527 199.353C91.6479 200.58 89.7721 200.881 85.3862 198.546C77.3964 194.291 74.8108 190.012 74.8108 190.012C74.8108 190.012 79.8319 189.783 87.938 194.099Z" fill="#B2C9C6"/>
    <path d="M97.8548 220.96C99.2968 224.259 98.6374 225.682 97.2951 226.226C95.9526 226.77 94.4355 226.231 92.9935 222.931C90.3667 216.921 91.528 213.031 91.528 213.031C91.528 213.031 95.1897 214.862 97.8548 220.96Z" fill="#B2C9C6"/>
    <path d="M106.208 190.333C106.773 193.871 105.774 195.096 104.335 195.31C102.895 195.523 101.56 194.644 100.995 191.106C99.9649 184.661 102.074 181.16 102.074 181.16C102.074 181.16 105.163 183.794 106.208 190.333Z" fill="#B2C9C6"/>
    <path d="M107.746 242.61C107.256 246.159 105.94 247.064 104.496 246.879C103.053 246.694 102.028 245.489 102.517 241.94C103.409 235.477 106.455 232.688 106.455 232.688C106.455 232.688 108.651 236.052 107.746 242.61Z" fill="#B2C9C6"/>
    <path d="M88.1017 231.225C90.2434 234.151 89.9156 235.676 88.7253 236.485C87.5349 237.293 85.9328 237.079 83.7911 234.153C79.8893 228.825 80.1587 224.785 80.1587 224.785C80.1587 224.785 84.1429 225.819 88.1017 231.225Z" fill="#B2C9C6"/>
    <path d="M118.741 163.523C119.529 168.29 118.597 169.887 117.158 170.108C115.72 170.328 114.319 169.089 113.532 164.322C112.097 155.637 114.007 151.041 114.007 151.041C114.007 151.041 117.285 154.712 118.741 163.523Z" fill="#B2C9C6"/>
    <path d="M212.005 373.657C212.005 373.657 168.045 239.408 130.675 252.266C93.304 265.125 180.825 335.938 192.336 375.409L212.005 373.657Z" fill="#B2C9C6"/>
    <path d="M182.23 349.748C182.23 349.748 110.225 227.507 69.6832 247.927C29.1419 268.348 140.518 319.349 160.076 355.585L182.23 349.748Z" fill="#9BBCB6"/>
    <path d="M169.868 353.12C156.834 327.858 133.764 304.94 116.707 290.163C98.214 274.143 82.617 263.981 82.4615 263.88L83.1151 262.945C83.2712 263.047 98.9366 273.253 117.49 289.325C134.623 304.168 157.8 327.197 170.916 352.618L169.868 353.12Z" fill="#74A1BD"/>
    <path d="M181.664 413.224C167.173 410.808 150.162 408.548 132.702 406.433C131.116 403.449 130.591 400.954 130.591 400.954C121.426 388.528 123.064 390.42 97.9215 390.987C79.8873 391.386 80.2017 376.188 74.4674 364.303C74.3646 364.087 74.2567 363.871 74.1493 363.655C71.9097 359.239 68.752 355.338 63.3869 352.956C57.6954 350.433 52.011 347.017 47.1843 343.088C46.7828 342.764 46.3877 342.434 45.9981 342.098C36.4858 333.954 30.8112 323.842 36.1403 315.037C36.2653 314.828 36.3969 314.62 36.5355 314.416C37.5027 312.972 38.7748 311.564 40.3825 310.21C57.1442 296.106 70.5993 303.993 86.7914 308.942C95.7444 311.676 110.622 302.368 124.329 298.924C124.525 298.874 124.722 298.827 124.918 298.779C135.778 296.181 145.835 297.445 151.526 311.55C151.526 311.552 151.528 311.552 151.528 311.555C151.644 311.841 151.76 312.125 151.874 312.404C164.66 343.503 174.877 334.499 198.441 343.394C202.824 345.051 206.737 346.745 209.066 349.47C230.78 374.864 209.108 402.352 181.664 413.224Z" fill="#8CBFCB"/>
    <path d="M188.209 385.676L189.254 384.72C188.817 384.276 144.215 340.015 36.3155 314.361L35.9698 315.71C143.464 341.268 187.773 385.235 188.209 385.676Z" fill="#87B1B3"/>
    <path d="M130.032 330.891C147.199 321.55 151.987 312.244 152.183 311.852L150.884 311.25C150.838 311.342 146.051 320.58 129.322 329.682L130.032 330.891Z" fill="#87B1B3"/>
    <path d="M124.18 344.986C129.773 339.023 131.661 329.109 129.639 316.316C128.125 306.735 124.927 298.792 124.894 298.713L123.552 299.218C123.678 299.528 135.97 330.344 123.11 344.056L124.18 344.986Z" fill="#87B1B3"/>
    <path d="M96.1779 336.519C98.1969 335.511 99.3234 334.816 99.3744 334.784L98.5865 333.621C98.3507 333.77 74.6202 348.384 46.1769 341.425L45.8225 342.77C68.7414 348.378 88.6551 340.276 96.1779 336.519Z" fill="#87B1B3"/>
    <path d="M74.8825 364.857C83.0369 359.233 86.5202 352.614 88.0062 348.053C89.624 343.087 89.3016 339.487 89.2876 339.336L87.8514 339.463C87.8643 339.602 88.973 353.431 74.0424 363.729L74.8825 364.857Z" fill="#87B1B3"/>
    <path d="M325.609 170.056C328.29 165.518 330.584 164.988 332.43 166C334.277 167.012 334.977 169.182 332.297 173.721C327.415 181.988 321.711 184.151 321.711 184.151C321.711 184.151 320.656 178.444 325.609 170.056Z" fill="#B2C9C6"/>
    <path d="M51.8983 286.42C47.6596 283.923 47.2228 281.882 48.2392 280.282C49.2554 278.682 51.3405 278.128 55.5789 280.626C63.3002 285.176 65.1917 290.272 65.1917 290.272C65.1917 290.272 59.732 291.037 51.8983 286.42Z" fill="#B2C9C6"/>
    <path d="M369.279 409.397C369.279 409.397 402.25 414.328 429.893 411.718C457.537 409.108 495.735 407.669 488.777 363.77C481.819 319.871 489.348 301.527 462.049 290.728C434.75 279.931 402.995 286.933 381.703 312.038C360.411 337.143 310.531 390.615 369.279 409.397Z" fill="#8CBFCB"/>
    <path d="M428.701 344.615C428.516 344.615 428.355 344.483 428.331 344.302C428.304 344.105 428.449 343.924 428.653 343.899C438.829 342.627 446.743 337.078 451.59 332.646C456.85 327.837 459.726 323.282 459.755 323.237C459.862 323.066 460.092 323.012 460.268 323.114C460.445 323.216 460.501 323.438 460.395 323.608C460.366 323.654 457.436 328.293 452.104 333.168C447.176 337.673 439.124 343.316 428.749 344.612C428.733 344.614 428.717 344.615 428.701 344.615Z" fill="#2F1A31"/>
    <path d="M444.39 338.935C444.334 338.935 444.278 338.922 444.224 338.897C444.039 338.809 443.964 338.593 444.055 338.415C446.075 334.484 445.974 330.998 445.534 328.765C445.056 326.337 444.083 324.82 444.073 324.805C443.964 324.637 444.017 324.414 444.192 324.309C444.366 324.203 444.597 324.254 444.706 324.423C444.747 324.486 448.782 330.836 444.725 338.734C444.66 338.861 444.527 338.935 444.39 338.935Z" fill="#2F1A31"/>
    <path d="M345.834 400.441C345.834 400.441 345.622 404.915 342.451 406.115C339.28 407.315 330.145 408.273 333.487 411.219C335.405 412.909 344.634 412.025 347.233 412.077C349.832 412.128 352.249 413.268 354.216 411.631C356.38 409.829 354.452 400.613 354.452 400.613C354.452 400.613 352.185 401.693 350.17 401.603C347.264 401.472 345.834 400.441 345.834 400.441Z" fill="#2F1A31"/>
    <path d="M318.113 397.873C318.113 397.873 317.851 402.344 314.666 403.511C311.482 404.678 302.336 405.541 305.646 408.521C307.544 410.231 316.783 409.443 319.381 409.522C321.979 409.6 324.383 410.765 326.369 409.149C328.553 407.37 326.728 398.134 326.728 398.134C326.728 398.134 324.45 399.191 322.435 399.079C319.532 398.919 318.113 397.873 318.113 397.873Z" fill="#2F1A31"/>
    <path d="M320.232 401.574C314.863 400.985 310.922 396.431 311.292 391.238C313.387 361.898 316.222 347.121 326.513 334.895C333.125 327.04 342.78 319.587 354.362 315.514C364.346 312.002 372.758 310.517 383.673 310.807C401.472 311.28 409.59 314.512 409.59 314.512C420.501 342.243 399.362 344.047 383.895 343.496C383.384 343.478 382.871 343.463 382.355 343.452C372.979 343.243 356.195 344.148 349.121 352.552C343.519 359.207 339.183 368.843 335.438 394.315C334.72 399.203 330.102 402.657 325.01 402.098L320.232 401.574Z" fill="#1E1F33"/>
    <path d="M345.76 405.22C340.391 404.631 336.449 400.077 336.82 394.885C338.915 365.544 341.749 350.767 352.041 338.541C358.653 330.686 368.037 325.122 379.933 322.003C388.423 319.777 398.262 318.795 409.177 319.085C426.976 319.558 435.118 318.158 435.118 318.158C446.402 353.433 394.62 341.844 379.67 355.233C373.156 361.067 364.711 372.489 360.966 397.962C360.248 402.849 355.63 406.303 350.538 405.745L345.76 405.22Z" fill="#1E1F33"/>
    <path d="M380.942 268.342C379.539 270.088 365.83 285.124 365.657 301.723L378.439 299.233L387.361 278.101L380.942 268.342Z" fill="#F7B686"/>
    <path d="M430.433 268.452C430.433 268.452 424.964 254.509 406.272 255.476C387.581 256.442 374.451 263.545 371.737 313.791C371.737 313.791 397.533 312.378 427.025 329.101C431.99 331.917 439.742 331.349 440.06 325.807C440.693 314.77 438.336 293.691 430.433 268.452Z" fill="#7BB3B4"/>
    <path d="M446.854 270.656L430.431 275.667C430.431 275.667 396.426 279.501 387.361 278.101C378.296 276.701 375.706 269.797 375.706 269.797C375.706 269.797 385.172 259.202 401.494 256.132C403.028 255.841 404.62 255.619 406.271 255.477C409.044 255.242 411.711 254.997 414.431 255.272C441.024 257.957 446.854 270.656 446.854 270.656Z" fill="#7BB3B4"/>
    <path d="M446.853 270.653C447.732 272.539 443.885 274.309 439.168 275.994C434.452 277.678 430.245 278.017 429.773 276.752C429.3 275.487 432.741 273.096 437.457 271.411C442.174 269.727 446.281 269.426 446.853 270.653Z" fill="#2F1A31"/>
    <path d="M400.097 318.808C396.899 318.351 394.392 317.196 392.5 315.343C388.927 311.845 388.899 307.079 389.96 304.06L394.142 302.454C394.49 301.465 401.335 306.307 401.323 306.301C401.355 306.316 404.715 307.797 417.812 303.545C426.929 300.585 432.113 295.276 433.658 287.313C434.824 281.311 432.797 278.229 432.364 276.665C432.307 276.457 433.488 273.839 438.355 272.289C443.611 270.615 445.52 271.92 445.52 271.92C446.304 274.751 447.903 281.224 446.278 289.596C444.59 298.292 438.981 309.825 421.849 315.387C412.507 318.42 405.365 319.56 400.097 318.808Z" fill="#F7B686"/>
    <path d="M397.226 320.222L362.913 319.319C362.195 319.3 361.57 318.843 361.362 318.185L354.813 297.486C354.483 296.443 355.317 295.398 356.456 295.428L389.453 296.297C390.957 296.336 392.265 297.292 392.701 298.67L398.869 318.164C399.198 319.207 398.364 320.252 397.226 320.222Z" fill="#96B4E0"/>
    <path d="M395.073 320.165L360.76 319.262C360.042 319.243 359.417 318.786 359.208 318.128L352.66 297.429C352.33 296.387 353.164 295.342 354.302 295.372L387.3 296.24C388.803 296.28 390.112 297.236 390.548 298.613L396.715 318.108C397.045 319.15 396.211 320.195 395.073 320.165Z" fill="#96B4E0"/>
    <path d="M371.386 307.01C371.408 306.231 372.35 305.939 373.164 305.96C373.978 305.982 375.283 306.871 375.243 307.962C375.201 309.139 374.241 309.268 373.427 309.246C372.613 309.225 371.358 308.002 371.386 307.01Z" fill="#DEEBE9"/>
    <path d="M407.779 317.599L360.825 316.363L360.743 319.262L408.673 320.523C409.23 320.538 409.695 320.115 409.71 319.578L409.71 319.564C409.74 318.508 408.875 317.628 407.779 317.599Z" fill="#96B4E0"/>
    <path d="M393.011 306.769C392.996 306.707 391.485 300.582 390.448 298.663C389.431 296.78 388.113 296.37 388.1 296.365L388.165 296.16C388.223 296.177 389.582 296.594 390.646 298.564C391.696 300.506 393.166 306.467 393.228 306.719L393.011 306.769Z" fill="#6F4975"/>
    <path d="M397.784 317.442C396.512 317.409 396.211 316.858 396.199 316.835L393.736 309.055L393.949 308.992L396.405 316.756C396.405 316.755 396.405 316.755 396.405 316.755C396.408 316.755 396.682 317.198 397.79 317.227L397.784 317.442Z" fill="#6F4975"/>
    <g opacity="0.3">
    <path d="M433.534 305.591C433.251 305.591 433.001 305.513 432.806 305.362C432.047 304.777 432.301 303.279 433.385 301.953C434.092 301.087 435.004 300.497 435.764 300.413C436.123 300.373 436.439 300.448 436.676 300.631C437.435 301.216 437.18 302.713 436.097 304.039C435.389 304.905 434.477 305.496 433.717 305.58C433.655 305.587 433.593 305.591 433.534 305.591ZM435.95 300.831C435.907 300.831 435.862 300.834 435.815 300.839C435.178 300.91 434.362 301.451 433.735 302.218C432.836 303.319 432.538 304.605 433.084 305.026C433.228 305.138 433.424 305.181 433.666 305.153C434.303 305.083 435.119 304.541 435.746 303.774C436.645 302.673 436.943 301.388 436.397 300.966C436.281 300.877 436.131 300.831 435.95 300.831Z" fill="#E08B65"/>
    </g>
    <path d="M409.642 253.051L406.828 248.269L406.008 246.877L401.191 238.691L402.802 247.504L403.77 252.793L404.077 254.468C404.285 255.604 403.625 255.991 402.98 257.153C402.719 257.623 401.016 260.502 403.815 261.051C407.302 261.734 412.782 258.432 414.433 255.272C414.414 255.271 410.552 254.596 409.642 253.051Z" fill="#F7B686"/>
    <path d="M395.529 234.635C395.529 234.635 394.663 236.722 394.894 239.5C395.125 242.277 398.852 235.971 398.852 235.971L395.529 234.635Z" fill="#56335B"/>
    <path d="M394.451 240.24C395.848 235.093 400.572 231.825 405.003 232.941C409.434 234.057 411.894 239.133 410.497 244.279C409.101 249.426 404.377 252.693 399.946 251.578C395.514 250.462 393.055 245.386 394.451 240.24Z" fill="#F7B686"/>
    <path d="M411.059 241.569L407.129 240.688C406.264 240.494 405.522 239.944 405.142 239.172C404.487 237.843 403.587 237.093 399.854 236.777C395.128 236.377 392.375 233.299 392.176 230.867C391.973 228.384 394.595 227.035 396.807 228.475C399.019 229.916 398.374 226.963 400.685 226.938C405.005 226.891 405.388 230.14 408.878 230.459C413.453 230.876 421.182 235.201 416.301 242.461L411.059 241.569Z" fill="#2F1A31"/>
    <path d="M402.091 241.809C402.052 241.777 402.027 241.73 402.03 241.677C402.034 241.587 402.112 241.518 402.204 241.522C402.259 241.524 403.529 241.46 403.989 242.809C404.018 242.893 403.974 242.985 403.886 243.015C403.798 243.045 403.721 242.992 403.672 242.916C403.181 242.155 402.235 241.847 402.19 241.845C402.152 241.844 402.118 241.83 402.091 241.809Z" fill="#060633"/>
    <path d="M402.548 243.955C402.395 244.312 402.053 244.515 401.784 244.408C401.515 244.301 401.421 243.925 401.574 243.568C401.727 243.211 402.069 243.008 402.338 243.114C402.607 243.222 402.701 243.598 402.548 243.955Z" fill="#060633"/>
    <path d="M395.986 240.581C395.948 240.57 395.918 240.538 395.906 240.49C395.887 240.41 395.928 240.316 395.999 240.281C396.041 240.26 396.987 239.675 397.675 240.673C397.719 240.736 397.708 240.836 397.649 240.898C397.591 240.961 397.518 240.946 397.462 240.9C396.898 240.433 396.105 240.555 396.07 240.572C396.041 240.587 396.012 240.589 395.986 240.581Z" fill="#060633"/>
    <path d="M397.292 242.413C397.292 242.799 397.055 243.112 396.764 243.112C396.473 243.112 396.238 242.799 396.238 242.412C396.238 242.026 396.475 241.713 396.765 241.713C397.057 241.713 397.292 242.026 397.292 242.413Z" fill="#060633"/>
    <path d="M416.302 242.462C416.302 242.462 412.805 247.846 408.85 247.792C408.85 247.792 412.573 243.818 406.273 240.357C406.273 240.357 412.496 240.172 416.302 242.462Z" fill="#56335B"/>
    <path d="M410.391 244.95C409.49 245.36 408.451 245.064 408.071 244.288C407.691 243.513 408.112 242.552 409.013 242.142C409.914 241.731 410.953 242.028 411.334 242.803C411.714 243.578 411.292 244.54 410.391 244.95Z" fill="#F7B686"/>
    <path d="M406.272 240.355C406.272 240.355 406.178 245.218 405.046 246.002C403.914 246.786 397.169 246.365 394.197 244.824C393.743 247.899 395.642 250.892 398.731 251.785C399.752 252.08 400.832 252.212 401.928 252.162C404.163 252.058 406.402 251.444 407.559 249.599C407.911 249.038 407.591 245.284 407.591 245.284C407.591 245.284 407.571 243.101 409.013 242.141C409.013 242.141 407.686 240.664 406.272 240.355Z" fill="#56335B"/>
    <path d="M396.823 247.273C396.823 247.273 398.038 247.788 399.738 247.952C399.738 247.952 399.265 248.646 398.21 248.454C397.086 248.248 396.823 247.273 396.823 247.273Z" fill="white"/>
    <path d="M397.294 228.151L397.329 227.936C398.408 228.099 398.614 227.275 398.623 227.24L398.844 227.287C398.841 227.298 398.587 228.347 397.294 228.151Z" fill="#2F1A31"/>
    <path d="M398.687 235.345C398.675 235.34 397.442 234.823 396.239 233.997C394.638 232.897 393.818 231.749 393.868 230.677C393.903 229.93 394.102 229.451 394.478 229.212C395.075 228.83 395.981 229.152 396.779 229.437C396.898 229.479 397.014 229.52 397.125 229.558L397.088 229.661C396.976 229.624 396.859 229.581 396.74 229.539C395.967 229.263 395.09 228.951 394.54 229.302C394.198 229.521 394.015 229.972 393.982 230.681C393.921 231.987 395.212 233.156 396.305 233.908C397.498 234.727 398.72 235.239 398.732 235.244L398.687 235.345Z" fill="white"/>
    <path d="M407.17 231.048C406.372 230.776 405.739 230.438 405.264 230.126C404.139 229.388 403.644 228.654 403.623 228.623L403.719 228.564C403.738 228.594 405.748 231.524 410.716 231.48L410.717 231.589C409.293 231.601 408.115 231.371 407.17 231.048Z" fill="white"/>
    <path d="M338.178 378.389C338.178 378.277 338.194 367.079 342.513 355.052C345.051 347.986 348.556 342.019 352.931 337.317C358.402 331.438 365.255 327.533 373.3 325.711L373.347 325.902C365.344 327.714 358.527 331.598 353.085 337.446C348.729 342.127 345.237 348.071 342.708 355.111C338.398 367.107 338.381 378.276 338.382 378.388L338.178 378.389Z" fill="#020202"/>
    <path d="M133.071 406.881C124.625 406.667 117.209 400.905 117.432 392.77L128.704 174.956C128.927 166.821 135.98 160.376 144.426 160.591L256.926 163.45C265.372 163.664 277.292 168.444 276.957 180.654L265.775 392.456C265.552 400.591 258.5 407.035 250.054 406.82L133.071 406.881Z" fill="#1E1F33"/>
    <path d="M217.835 170.937L187.736 170.085C186.799 170.058 186.061 169.305 186.089 168.402C186.116 167.499 186.898 166.789 187.836 166.815L217.935 167.668C218.872 167.694 219.61 168.448 219.582 169.351C219.554 170.254 218.772 170.964 217.835 170.937Z" fill="#1E1F33"/>
    <path d="M256.763 176.849L144.172 173.988C137.882 173.829 132.653 178.474 132.492 184.364L123.888 379.285C123.41 392.628 130.876 392.306 137.165 392.466L250.708 392.332C256.999 392.492 262.442 385.671 262.604 379.78L272.421 189.176C272.582 183.286 263.054 177.009 256.763 176.849Z" fill="#E1E9E9"/>
    <mask id="mask0_741_2549" style="mask-type:luminance" maskUnits="userSpaceOnUse" x="107" y="146" width="240" height="247">
    <path d="M257.92 149.254L130.874 146.026C123.777 145.846 117.876 151.087 117.694 157.733L107.985 377.68C107.447 392.736 115.871 392.372 122.968 392.553L251.088 392.402C258.186 392.582 264.329 384.886 264.511 378.238L265.822 352.784L346.968 345.59L312.91 163.989C313.092 157.342 265.019 149.434 257.92 149.254Z" fill="white"/>
    </mask>
    <g mask="url(#mask0_741_2549)">
    <path d="M233.977 330.702C234.752 330.911 235.208 331.693 234.991 332.439L231.627 344.023C231.41 344.77 230.599 345.209 229.824 345.001C229.049 344.792 228.592 344.01 228.809 343.264L232.173 331.68C232.39 330.933 233.202 330.494 233.977 330.702Z" fill="#F7B686"/>
    <path d="M230.37 329.732C231.144 329.94 231.601 330.722 231.384 331.468L227.622 344.424C227.405 345.169 226.593 345.61 225.819 345.401C225.044 345.192 224.588 344.411 224.804 343.664L228.567 330.709C228.783 329.962 229.595 329.523 230.37 329.732Z" fill="#F7B686"/>
    <path d="M231.359 322.727L231.664 323.134C232.234 323.893 232.055 324.964 231.267 325.513L223.587 330.86C222.798 331.409 221.687 331.237 221.117 330.478L220.812 330.071C220.242 329.312 220.421 328.241 221.209 327.692L228.889 322.345C229.678 321.796 230.789 321.968 231.359 322.727Z" fill="#F7B686"/>
    <path d="M226.764 328.759C227.539 328.968 227.995 329.749 227.778 330.495L224.762 340.88C224.546 341.627 223.735 342.067 222.96 341.858C222.185 341.649 221.728 340.868 221.945 340.121L224.961 329.736C225.177 328.99 225.989 328.55 226.764 328.759Z" fill="#F7B686"/>
    <path d="M238.339 324.765C238.339 324.765 240.475 332.55 236.891 337.113C235.65 338.693 225.115 335.551 224.7 333.369C224.286 331.186 227.032 324.363 227.032 324.363L238.339 324.765Z" fill="#F7B686"/>
    <path d="M237.561 331.657C238.334 331.866 238.79 332.646 238.574 333.39L235.564 343.754C235.348 344.499 234.538 344.938 233.765 344.729C232.991 344.521 232.536 343.741 232.752 342.996L235.762 332.633C235.978 331.888 236.788 331.449 237.561 331.657Z" fill="#F7B686"/>
    <path d="M224.733 325.176C224.731 309.46 223.459 286.88 217.403 268.556C216 264.31 215.4 262.71 214.216 260.355C213.262 258.46 215.644 254.686 218.992 253.08C222.134 251.573 226.74 252.267 227.39 253.206C228.496 254.803 229.558 257.77 231.201 262.477C236.911 278.832 239.306 299.524 238.584 325.868L224.733 325.176Z" fill="#F7B686"/>
    <path d="M227.918 300.127C227.918 300.127 228.541 320.212 221.887 358.743C217.082 386.56 211.411 414.59 208.628 428.028C207.633 432.835 203.436 436.35 198.462 436.542L195.789 436.645C190.41 436.853 186.045 432.403 186.438 427.113L193.188 336.199L194.852 306.275L227.918 300.127Z" fill="#436E8E"/>
    <path d="M198.309 300.127C198.309 300.127 198.933 320.212 192.278 358.743C187.474 386.56 181.802 414.59 179.02 428.028C178.025 432.835 173.827 436.35 168.853 436.542L166.18 436.645C160.802 436.853 156.437 432.403 156.829 427.113L163.579 336.199L165.243 306.275L198.309 300.127Z" fill="#436E8E"/>
    <path d="M166.579 253.533C166.579 253.533 169.906 240.831 194.454 240.702C229.855 240.516 226.577 271.848 229.853 319.464C229.853 319.464 194.983 314.714 161.956 321.542C161.956 321.542 158.892 272.94 166.579 253.533Z" fill="#8CBFCB"/>
    <path d="M157.515 251.712L173.548 260.257C173.548 260.257 208.655 263.328 217.974 261.849C227.293 260.37 229.85 253.778 229.85 253.778C229.85 253.778 219.924 243.886 203.053 241.245C201.468 240.995 199.824 240.811 198.12 240.704C195.258 240.527 192.392 240.564 189.591 240.868C168.209 243.188 157.515 251.712 157.515 251.712Z" fill="#8CBFCB"/>
    <path d="M191.079 237.792L192.932 232.032L193.471 230.355L196.643 220.494L197.06 230.303L197.309 236.19L197.389 238.054C197.442 239.319 198.243 239.585 199.217 240.685C199.612 241.13 202.138 243.831 199.271 245.051C195.7 246.571 189.024 244.269 186.485 241.254C186.505 241.25 190.48 239.655 191.079 237.792Z" fill="#F7B686"/>
    <path d="M192.751 232.596L192.322 233.927C194.078 235.933 196.137 236.249 197.309 236.193V236.192L197.181 233.176C196.924 232.699 196.723 232.358 196.723 232.358C194.996 231.903 193.478 232.321 192.751 232.596Z" fill="#2F1A31"/>
    <path d="M199.218 240.686C199.218 240.686 213.399 268.912 212.122 294.525C210.844 320.139 210.612 371.59 210.612 371.59C210.612 371.59 224.273 375.839 234.279 368.387C234.279 368.387 234.766 272.773 223.732 253.686L199.218 240.686Z" fill="white"/>
    <path d="M204.804 216.795C204.804 216.795 205.451 219.182 204.804 222.175C204.157 225.167 200.998 217.811 200.998 217.811L204.804 216.795Z" fill="#2F1A31"/>
    <path d="M205.18 223.035C204.391 217.249 199.714 213.069 194.731 213.7C189.749 214.33 186.35 219.531 187.139 225.317C187.928 231.103 192.606 235.283 197.587 234.653C202.569 234.023 205.969 228.821 205.18 223.035Z" fill="#F7B686"/>
    <path d="M197.852 229.317C200.236 229.204 202.365 228.666 202.365 228.666C202.019 230.592 198.982 231.147 197.852 229.317Z" fill="white"/>
    <path d="M186.912 222.292L191.315 221.851C192.283 221.755 193.169 221.254 193.693 220.464C194.595 219.104 195.681 218.405 199.789 218.554C204.991 218.742 208.425 215.755 208.987 213.133C209.561 210.457 206.899 208.643 204.287 209.919C201.674 211.195 202.795 208.067 200.283 207.734C195.588 207.114 194.709 210.599 190.865 210.486C185.825 210.338 176.797 214.027 181.078 222.572L186.912 222.292Z" fill="#2F1A31"/>
    <path d="M196.636 223.734C196.684 223.705 196.716 223.656 196.722 223.598C196.73 223.5 196.655 223.415 196.554 223.406C196.494 223.402 195.12 223.165 194.428 224.572C194.384 224.661 194.42 224.767 194.511 224.81C194.602 224.854 194.694 224.807 194.758 224.731C195.4 223.967 196.473 223.757 196.523 223.76C196.565 223.764 196.604 223.754 196.636 223.734Z" fill="#060633"/>
    <path d="M195.837 226.013C195.953 226.422 196.296 226.687 196.604 226.607C196.912 226.526 197.068 226.129 196.952 225.72C196.837 225.311 196.493 225.045 196.185 225.126C195.877 225.207 195.721 225.604 195.837 226.013Z" fill="#060633"/>
    <path d="M203.458 223.206C203.501 223.199 203.538 223.168 203.558 223.118C203.591 223.033 203.559 222.925 203.486 222.877C203.444 222.849 202.498 222.087 201.606 223.083C201.55 223.146 201.547 223.256 201.603 223.332C201.658 223.408 201.738 223.401 201.806 223.358C202.486 222.924 203.332 223.162 203.368 223.185C203.397 223.205 203.429 223.211 203.458 223.206Z" fill="#060633"/>
    <path d="M201.778 225.028C201.723 225.448 201.935 225.82 202.252 225.858C202.569 225.896 202.87 225.586 202.925 225.166C202.979 224.745 202.767 224.373 202.45 224.335C202.133 224.297 201.832 224.607 201.778 225.028Z" fill="#060633"/>
    <path d="M181.079 222.572C181.079 222.572 184.12 228.894 188.432 229.357C188.432 229.357 184.945 224.54 192.295 221.604C192.295 221.604 185.547 220.582 181.079 222.572Z" fill="#2F1A31"/>
    <path d="M187.159 226.062C188.081 226.627 189.254 226.442 189.778 225.648C190.303 224.854 189.98 223.752 189.058 223.187C188.135 222.621 186.963 222.807 186.438 223.601C185.914 224.395 186.236 225.496 187.159 226.062Z" fill="#F7B686"/>
    <path d="M203.728 209.502C203.753 209.502 203.778 209.501 203.804 209.5L203.796 209.261C202.587 209.292 202.491 208.373 202.487 208.334L202.24 208.356C202.241 208.368 202.364 209.502 203.728 209.502Z" fill="#E28569"/>
    <path d="M201.263 217.15C201.495 217.085 206.936 215.531 207.172 212.704C207.24 211.888 207.091 211.34 206.717 211.03C206.121 210.535 205.09 210.767 204.18 210.971C204.045 211.002 203.913 211.031 203.786 211.057L203.812 211.174C203.94 211.148 204.073 211.118 204.208 211.088C205.089 210.89 206.087 210.665 206.636 211.12C206.978 211.404 207.113 211.919 207.048 212.695C206.928 214.124 205.358 215.226 204.062 215.899C202.648 216.634 201.243 217.032 201.229 217.036L201.263 217.15Z" fill="white"/>
    <path d="M190.363 211.585C194.712 211.585 196.823 209.209 196.846 209.182L196.751 209.105C196.725 209.135 194.121 212.062 188.72 211.356L188.703 211.474C189.289 211.551 189.842 211.585 190.363 211.585Z" fill="white"/>
    <path d="M223.536 260.693L223.925 260.589C222.892 256.987 219.429 252.488 219.394 252.443L219.07 252.676C219.105 252.72 222.523 257.162 223.536 260.693Z" fill="#2F1A31"/>
    <path d="M191.154 366.59C191.182 366.426 193.918 350.076 195.795 344.243C197.654 338.467 205.657 333.611 205.737 333.563L205.524 333.232C205.442 333.282 197.312 338.215 195.409 344.128C193.524 349.986 190.783 366.364 190.755 366.529L191.154 366.59Z" fill="#2F1A31"/>
    <path d="M189.057 239.916C189.057 239.916 196.773 249.134 196.159 272.018C195.544 294.902 186.414 371.591 186.414 371.591H148.408C148.408 371.591 148.143 288.197 162.516 260.642C162.516 260.642 178.562 241.832 189.057 239.916Z" fill="white"/>
    <path d="M189.056 239.916C189.056 239.916 168.163 241.845 157.517 251.711C146.87 261.577 120.05 317.96 197.797 321.542C197.797 321.542 192.222 307.754 197.797 294.138C197.797 294.138 179.146 295.33 175.81 289.722C172.474 284.114 190.954 251.423 190.954 251.423L189.056 239.916Z" fill="white"/>
    <path d="M194.255 309.202C193.666 319.455 196.586 321.542 197.798 321.542C199.01 321.542 199.994 315.408 199.994 307.84C199.994 300.273 199.01 294.139 197.798 294.139C196.586 294.139 194.689 301.646 194.255 309.202Z" fill="#2F1A31"/>
    <path d="M197.777 321.683C197.789 321.683 197.796 321.683 197.8 321.682C197.881 321.682 197.947 321.618 197.946 321.539C197.945 321.461 197.879 321.399 197.799 321.399C197.799 321.399 197.788 321.399 197.775 321.399C196.875 321.399 171.282 321.223 152.058 305.746C151.995 305.696 151.902 305.704 151.85 305.764C151.798 305.824 151.807 305.913 151.869 305.964C171.172 321.504 196.861 321.683 197.777 321.683Z" fill="#2F1A31"/>
    <path d="M195.869 294.33C196.958 294.33 197.661 294.288 197.807 294.278C197.888 294.273 197.949 294.206 197.943 294.127C197.938 294.049 197.873 293.99 197.787 293.996C196.941 294.051 177.005 295.209 172.439 282.648C171.221 279.297 173.138 271.891 173.157 271.817C173.177 271.741 173.129 271.665 173.051 271.645C172.971 271.625 172.892 271.672 172.872 271.748C172.792 272.055 170.914 279.31 172.161 282.741C176.012 293.335 190.549 294.33 195.869 294.33Z" fill="#2F1A31"/>
    <path d="M199.218 240.686C199.218 240.686 221.305 242.007 229.853 253.776C238.4 265.544 241.539 325.869 241.539 325.869C241.539 325.869 237.982 331.926 229.853 328.146C221.723 324.366 214.004 277.497 214.004 277.497L217.995 256.6L207.989 247.176L199.218 240.686Z" fill="white"/>
    <path d="M207.177 325.366L238.888 322.024C240.819 321.82 242.424 320.496 242.929 318.69L254.077 278.807C254.821 276.145 252.951 273.463 250.11 273.12L218.434 269.295C216.031 269.005 213.792 270.515 213.251 272.788L202.068 319.838C201.345 322.882 203.954 325.706 207.177 325.366Z" fill="#2F1A31"/>
    <path d="M245.339 271.129C245.339 271.129 245.136 274.159 243.513 274.256C241.889 274.354 229.307 273.572 229.307 273.181C229.307 272.79 229.814 269.831 231.336 269.258C232.858 268.685 245.631 269.64 245.339 271.129Z" fill="#E28569"/>
    <path d="M197.392 310.636C197.716 311.578 198.763 312.1 199.752 311.82C203.087 310.876 206.611 309.675 210.334 308.185C212.147 307.459 205.402 291.61 203.842 292.514C202.33 293.391 200.572 294.071 198.667 294.572C198.244 294.683 197.875 294.944 197.67 295.318C196.285 297.838 195.701 305.727 197.392 310.636Z" fill="#F7B686"/>
    <path d="M203.843 292.513C203.843 292.513 204.922 284.363 209.041 281.645C213.159 278.927 220.554 278.454 218.372 280.661C216.191 282.868 212.594 284.947 212.594 284.947C212.594 284.947 220.495 280.854 220.688 283.048C220.881 285.242 213.975 288.738 213.975 288.738C213.975 288.738 223.779 284.59 223.265 286.719C222.751 288.849 215.28 291.95 215.28 291.95C215.28 291.95 224.562 288.441 223.905 290.901C223.247 293.361 216.215 293.753 216.408 295.947C216.602 298.141 216.6 306.92 210.334 308.183L203.843 292.513Z" fill="#F7B686"/>
    <path d="M209.777 287.586C209.935 287.586 210.079 287.483 210.12 287.329C210.457 286.065 212.691 285.276 212.713 285.268C212.897 285.204 212.993 285.009 212.926 284.832C212.86 284.654 212.658 284.562 212.474 284.626C212.367 284.662 209.864 285.545 209.434 287.159C209.385 287.342 209.499 287.528 209.689 287.575C209.719 287.582 209.748 287.586 209.777 287.586Z" fill="#E08B65"/>
    <path d="M210.613 291.825C210.745 291.825 210.871 291.754 210.932 291.632C211.844 289.812 214.067 289.071 214.09 289.063C214.275 289.003 214.375 288.809 214.312 288.63C214.249 288.452 214.049 288.356 213.863 288.417C213.76 288.45 211.334 289.26 210.294 291.335C210.209 291.505 210.283 291.709 210.459 291.791C210.509 291.814 210.561 291.825 210.613 291.825Z" fill="#E08B65"/>
    <path d="M212.121 294.868C212.291 294.868 212.441 294.75 212.47 294.584C212.669 293.445 214.652 292.529 215.399 292.272C215.583 292.209 215.679 292.013 215.613 291.836C215.548 291.658 215.343 291.566 215.16 291.629C215.035 291.672 212.08 292.708 211.772 294.47C211.739 294.657 211.869 294.832 212.062 294.864C212.082 294.867 212.102 294.868 212.121 294.868Z" fill="#E08B65"/>
    <path d="M233.605 329.528C233.605 329.528 233.609 329.528 233.611 329.528C233.692 329.526 233.755 329.459 233.753 329.381L233.294 318.302C233.291 318.224 233.237 318.166 233.141 318.166C233.06 318.169 232.997 318.235 233 318.313L233.458 329.393C233.461 329.469 233.527 329.528 233.605 329.528Z" fill="#2F1A31"/>
    <path d="M187.492 272.195C187.664 272.195 187.835 272.123 187.951 271.984C188.155 271.74 188.115 271.383 187.862 271.186C183.15 267.529 180.133 261.86 180.844 257.998C181.223 255.942 182.593 254.514 184.917 253.754C186.244 253.32 187.374 253.44 188.369 254.122C190.117 255.317 191.442 258.265 192.201 262.647C192.787 266.028 192.818 269.064 192.819 269.095C192.822 269.406 193.085 269.657 193.407 269.657C193.409 269.657 193.41 269.657 193.412 269.657C193.737 269.655 193.999 269.399 193.996 269.086C193.991 268.572 193.835 256.471 189.051 253.197C187.744 252.302 186.226 252.129 184.538 252.68C181.816 253.57 180.138 255.341 179.685 257.8C178.892 262.107 182.02 268.108 187.123 272.069C187.232 272.154 187.363 272.195 187.492 272.195Z" fill="#2F1A31"/>
    <path d="M194.729 268.85C194.535 267.926 193.458 267.505 192.656 268.018C192.213 268.301 191.981 268.83 192.087 269.333C192.282 270.255 193.355 270.675 194.157 270.165C194.601 269.882 194.834 269.353 194.729 268.85Z" fill="#2F1A31"/>
    <path d="M188.45 271.544C188.256 270.618 187.179 270.199 186.376 270.712C185.933 270.996 185.702 271.525 185.808 272.027C186.004 272.949 187.077 273.368 187.878 272.859C188.323 272.576 188.555 272.046 188.45 271.544Z" fill="#2F1A31"/>
    <path d="M215.008 257.076C215.336 255.147 213.629 253.503 211.626 253.818C210.413 254.01 209.434 254.951 209.234 256.12C208.904 258.051 210.614 259.698 212.619 259.379C213.832 259.187 214.809 258.245 215.008 257.076Z" fill="#2F1A31"/>
    <path d="M212.121 257.167C212.144 257.167 212.168 257.165 212.192 257.162C212.514 257.125 212.745 256.843 212.705 256.532C212.69 256.408 212.311 253.455 210.875 249.994C208.954 245.366 206.041 242.076 202.451 240.48C202.158 240.349 201.806 240.473 201.669 240.758C201.533 241.042 201.662 241.378 201.958 241.51C210.006 245.088 211.522 256.552 211.537 256.668C211.573 256.955 211.827 257.167 212.121 257.167Z" fill="#2F1A31"/>
    <path d="M184.728 253.785C184.837 253.785 184.947 253.756 185.045 253.696C185.319 253.527 185.399 253.177 185.224 252.913C180.718 246.111 185.989 240.537 186.216 240.304C186.438 240.075 186.425 239.717 186.188 239.503C185.952 239.289 185.58 239.3 185.357 239.529C185.295 239.592 179.227 245.967 184.232 253.523C184.344 253.692 184.535 253.785 184.728 253.785Z" fill="#2F1A31"/>
    </g>
    <path fill-rule="evenodd" clip-rule="evenodd" d="M132.74 139.532C133.051 140.021 133.765 140.021 134.076 139.532L139.818 130.521H142.98C151.817 130.521 158.98 123.358 158.98 114.521L158.98 84.6672C158.98 75.8307 151.817 68.6672 142.98 68.6672L67.1328 68.6672C58.2962 68.6672 51.1328 75.8307 51.1328 84.6672V114.521C51.1328 123.358 58.2962 130.521 67.1328 130.521H126.998L132.74 139.532Z" fill="#006A71"/>
    <path fill-rule="evenodd" clip-rule="evenodd" d="M137.665 107.345C137.665 109.879 135.611 111.934 133.077 111.934H102.921C100.387 111.934 98.3326 109.879 98.3326 107.345C98.3326 104.81 100.387 102.756 102.921 102.756H133.077C135.611 102.756 137.665 104.81 137.665 107.345Z" fill="white"/>
    <path fill-rule="evenodd" clip-rule="evenodd" d="M150.776 91.6104C150.776 94.1447 148.722 96.1992 146.188 96.1992H102.921C100.387 96.1992 98.3326 94.1447 98.3326 91.6104C98.3326 89.076 100.387 87.0215 102.921 87.0215H146.188C148.722 87.0215 150.776 89.076 150.776 91.6104Z" fill="white"/>
    <circle cx="75.3884" cy="99.4769" r="12.4554" fill="white"/>
    <rect x="381.865" y="8.74805" width="141.58" height="111.558" rx="26.0324" fill="#006A71"/>
    <rect x="372" width="143.857" height="113.392" rx="19.5348" fill="white"/>
    <circle cx="497.215" cy="19.7413" r="3.02451" fill="#777777"/>
    <circle cx="390.642" cy="19.7413" r="3.02451" fill="#777777"/>
    <rect x="401.145" y="26.0664" width="85.2362" height="0.879857" rx="0.439929" fill="#777777"/>
    <rect x="430.51" y="17.1562" width="26.8357" height="4.28931" rx="2.14465" fill="#777777"/>
    <rect x="401.145" y="18.0371" width="25.2959" height="3.40945" rx="1.70472" fill="#777777"/>
    <rect x="462.296" y="18.0371" width="25.2959" height="3.40945" rx="1.70472" fill="#777777"/>
    <circle cx="404.207" cy="53.4937" r="2.54646" fill="#777777"/>
    <circle cx="404.207" cy="63.6812" r="2.54646" fill="#777777"/>
    <circle cx="404.207" cy="73.8687" r="2.54646" fill="#777777"/>
    <circle cx="404.207" cy="84.0523" r="2.54646" fill="#777777"/>
    <circle cx="404.207" cy="94.2379" r="2.54646" fill="#777777"/>
    <circle cx="417.541" cy="53.4937" r="2.54646" fill="#777777"/>
    <circle cx="417.533" cy="63.6823" r="6.48449" fill="#777777" stroke="white" stroke-width="6.37006"/>
    <circle cx="430.951" cy="73.9088" r="6.48449" fill="#777777" stroke="white" stroke-width="6.37006"/>
    <circle cx="417.541" cy="73.8687" r="2.54646" fill="#777777"/>
    <circle cx="417.541" cy="84.0523" r="2.54646" fill="#777777"/>
    <circle cx="417.541" cy="94.2379" r="2.54646" fill="#777777"/>
    <circle cx="430.875" cy="53.4937" r="2.54646" fill="#777777"/>
    <circle cx="430.875" cy="63.6812" r="2.54646" fill="#777777"/>
    <circle cx="430.875" cy="84.0523" r="2.54646" fill="#777777"/>
    <circle cx="444.21" cy="53.4937" r="2.54646" fill="#777777"/>
    <circle cx="444.21" cy="63.6812" r="2.54646" fill="#777777"/>
    <circle cx="444.21" cy="73.8687" r="2.54646" fill="#777777"/>
    <circle cx="444.21" cy="84.0523" r="2.54646" fill="#777777"/>
    <circle cx="457.543" cy="53.4937" r="2.54646" fill="#777777"/>
    <circle cx="457.543" cy="63.6812" r="2.54646" fill="#777777"/>
    <circle cx="457.543" cy="73.8687" r="2.54646" fill="#777777"/>
    <circle cx="457.543" cy="84.0523" r="2.54646" fill="#777777"/>
    <circle cx="470.877" cy="53.4937" r="2.54646" fill="#777777"/>
    <circle cx="470.877" cy="63.6812" r="2.54646" fill="#777777"/>
    <circle cx="470.877" cy="73.8687" r="2.54646" fill="#777777"/>
    <circle cx="470.877" cy="84.0523" r="2.54646" fill="#777777"/>
    <circle cx="484.212" cy="53.4937" r="2.54646" fill="#777777"/>
    <circle cx="484.212" cy="63.6812" r="2.54646" fill="#777777"/>
    <circle cx="484.212" cy="73.8687" r="2.54646" fill="#777777"/>
    <circle cx="484.212" cy="84.0523" r="2.54646" fill="#777777"/>
    <circle cx="404.253" cy="40.9488" r="3.33354" fill="#777777"/>
    <circle cx="417.587" cy="40.9488" r="3.33354" fill="#777777"/>
    <circle cx="430.921" cy="40.9488" r="3.33354" fill="#777777"/>
    <circle cx="444.256" cy="40.9488" r="3.33354" fill="#777777"/>
    <circle cx="457.59" cy="40.9488" r="3.33354" fill="#777777"/>
    <circle cx="470.924" cy="40.9488" r="3.33354" fill="#777777"/>
    <circle cx="484.258" cy="40.9488" r="3.33354" fill="#777777"/>
    <rect x="427.321" y="25.7344" width="32.9517" height="1.53975" rx="0.769875" fill="#777777"/>
    </svg>
    