<svg width="719" height="542" viewBox="0 0 719 542" fill="none" xmlns="http://www.w3.org/2000/svg">
    <path d="M662.328 60.7285H606.992V448.51C606.992 454.594 605.535 460.619 602.702 466.24C599.869 471.861 595.717 476.968 590.484 481.271C585.25 485.573 579.036 488.985 572.197 491.314C565.359 493.642 558.029 494.84 550.628 494.84H127.562V495.284C127.562 501.368 129.019 507.392 131.852 513.013C134.685 518.635 138.836 523.742 144.07 528.044C149.304 532.346 155.518 535.759 162.356 538.087C169.195 540.415 176.524 541.614 183.926 541.614H662.328C669.73 541.614 677.06 540.415 683.898 538.087C690.737 535.759 696.95 532.346 702.184 528.044C707.418 523.742 711.57 518.635 714.403 513.013C717.235 507.392 718.693 501.368 718.693 495.284V107.059C718.693 94.7712 712.755 82.9869 702.184 74.2983C691.614 65.6097 677.277 60.7285 662.328 60.7285Z" fill="#9ACBD0"/>
    <path d="M534.767 0.0957031H56.3648C25.2354 0.0957031 0 20.8385 0 46.426V434.651C0 460.238 25.2354 480.981 56.3648 480.981H534.767C565.896 480.981 591.132 460.238 591.132 434.651V46.426C591.132 20.8385 565.896 0.0957031 534.767 0.0957031Z" fill="#9ACBD0"/>
    <path d="M56.3651 9.62305C50.4854 9.62304 44.6633 10.5749 39.2311 12.4244C33.7989 14.2739 28.8632 16.9848 24.7056 20.4022C20.548 23.8196 17.25 27.8767 14.9999 32.3418C12.7499 36.8068 11.5918 41.5925 11.5918 46.4254V434.651C11.5918 444.411 16.309 453.772 24.7056 460.674C33.1022 467.576 44.4905 471.453 56.3651 471.453H361.693C390.301 471.453 418.629 466.821 445.059 457.823C471.49 448.824 495.505 435.634 515.734 419.007C535.963 402.379 552.009 382.639 562.957 360.914C573.905 339.189 579.54 315.904 579.54 292.389V46.4254C579.54 41.5925 578.381 36.8068 576.131 32.3418C573.881 27.8767 570.583 23.8196 566.426 20.4022C562.268 16.9848 557.332 14.2739 551.9 12.4244C546.468 10.5749 540.646 9.62304 534.766 9.62305H56.3651Z" fill="white"/>
    </svg>
    