<?xml version="1.0" encoding="UTF-8"?>
<svg width="99" height="99" viewBox="0 0 99 99" fill="none" xmlns="http://www.w3.org/2000/svg">
  <path
    d="M85.8701 28.1686H76.3009C76.3009 28.1686 76.255 33.6785 76.192 34.7334H85.8701C89.4936 34.7334 92.4349 37.6804 92.4349 41.2983V57.7075C92.4349 61.331 89.4936 64.2723 85.8701 64.2723H67.5459C63.7274 64.2723 60.895 63.8939 58.7966 63.1829C55.8095 62.1681 54.3015 60.471 53.5505 58.1834C52.0712 58.2522 50.6952 58.2579 49.4969 58.2579C48.6025 58.2579 47.7023 58.2579 46.8366 58.2751C47.9087 63.3664 50.8271 68.0335 58.8023 69.9313C60.4077 70.3154 62.2367 70.5734 64.2721 70.7167V85.8818C64.2721 89.4996 61.3251 92.4466 57.713 92.4466H41.298C37.6802 92.4466 34.7332 89.5053 34.7332 85.8818V67.5576C34.7332 52.7882 40.2947 52.7881 49.5026 52.7881C58.5099 52.7881 70.8369 52.7824 70.8369 31.4539V13.1297C70.8369 5.88828 64.9486 0 57.713 0H41.298C34.0566 0 28.1683 5.88828 28.1683 13.1297V28.1743H13.1294C5.88804 28.1686 -0.000244141 34.0569 -0.000244141 41.2983V57.7075C-0.000244141 64.9489 5.88804 70.8371 13.1294 70.8371H22.6986V67.5576C22.6986 66.4109 22.7387 65.3273 22.8075 64.278H13.1294C9.50587 64.278 6.56459 61.3368 6.56459 57.7132V41.2983C6.56459 37.6804 9.50587 34.7334 13.1294 34.7334H31.4536C35.2779 34.7334 38.1045 35.1118 40.2029 35.8228C43.1901 36.8376 44.698 38.5347 45.4548 40.8224C46.934 40.7536 48.3101 40.7478 49.5026 40.7478C50.4028 40.7478 51.3029 40.7478 52.1744 40.7306C51.1023 35.645 48.1839 30.978 40.2086 29.0745C38.6033 28.6903 36.78 28.4323 34.7389 28.2947V13.1297C34.7389 9.51184 37.6859 6.56483 41.3037 6.56483H57.713C61.3308 6.56483 64.2721 9.50611 64.2721 13.1297V31.4481C64.2721 46.2176 58.7163 46.2176 49.5026 46.2176C40.5011 46.2176 28.1741 46.2176 28.1741 67.5519V85.8761C28.1741 93.1117 34.0624 99 41.3037 99H57.713C64.9486 99 70.8369 93.1117 70.8369 85.8761V70.8314H85.8758C93.1172 70.8314 99.0055 64.9431 99.0055 57.7017V41.2983C98.9997 34.0569 93.1115 28.1686 85.8701 28.1686Z"
    fill="none"
    stroke="#ffffff"
    stroke-width="2"
  />
</svg>
