<?xml version="1.0" encoding="UTF-8"?>
<svg width="209" height="209" viewBox="0 0 209 209" fill="none" xmlns="http://www.w3.org/2000/svg">
  <path d="M181.271 59.4636H161.071C161.071 59.4636 160.974 71.0949 160.841 73.3219H181.271C188.921 73.3219 195.13 79.543 195.13 87.1802V121.82C195.13 129.469 188.921 135.678 181.271 135.678H142.589C134.528 135.678 128.549 134.879 124.119 133.379C117.814 131.236 114.63 127.654 113.045 122.824C109.922 122.97 107.017 122.982 104.488 122.982C102.6 122.982 100.7 122.982 98.872 123.018C101.135 133.766 107.296 143.618 124.132 147.624C127.521 148.435 131.381 148.98 135.678 149.282V181.296C135.678 188.933 129.457 195.154 121.832 195.154H87.1802C79.543 195.154 73.3219 188.945 73.3219 181.296V142.613C73.3219 111.435 85.0621 111.435 104.5 111.435C123.514 111.435 149.536 111.423 149.536 66.3988V27.7166C149.536 12.4301 137.106 0 121.832 0H87.1802C71.8937 0 59.4636 12.4301 59.4636 27.7166V59.4757H27.7166C12.4301 59.4636 0 71.8937 0 87.1802V121.82C0 137.106 12.4301 149.536 27.7166 149.536H47.917V142.613C47.917 140.193 48.0017 137.905 48.147 135.69H27.7166C20.0673 135.69 13.8583 129.481 13.8583 121.832V87.1802C13.8583 79.543 20.0673 73.3219 27.7166 73.3219H66.3988C74.4717 73.3219 80.4386 74.1207 84.8684 75.6215C91.1743 77.7638 94.3574 81.3464 95.9551 86.1756C99.0777 86.0303 101.983 86.0182 104.5 86.0182C106.4 86.0182 108.3 86.0182 110.14 85.9819C107.877 75.2463 101.716 65.3942 84.8805 61.3759C81.4916 60.565 77.6428 60.0203 73.334 59.7298V27.7166C73.334 20.0794 79.5551 13.8583 87.1923 13.8583H121.832C129.469 13.8583 135.678 20.0673 135.678 27.7166V66.3867C135.678 97.5648 123.95 97.5648 104.5 97.5648C85.4978 97.5648 59.4757 97.5648 59.4757 142.601V181.283C59.4757 196.558 71.9058 208.988 87.1923 208.988H121.832C137.106 208.988 149.536 196.558 149.536 181.283V149.524H181.283C196.57 149.524 209 137.094 209 121.808V87.1802C208.988 71.8937 196.558 59.4636 181.271 59.4636Z" 
  fill="#ffffff"
 
  />
</svg> 