<svg width="266" height="303" viewBox="0 0 266 303" fill="none" xmlns="http://www.w3.org/2000/svg">
    <g opacity="0.3">
    <rect width="7.16348" height="5.58822" rx="1.34409" transform="matrix(-1 0 0 1 265.04 0.285156)" fill="white"/>
    <rect width="7.16348" height="5.58822" rx="1.34409" transform="matrix(-1 0 0 1 236.452 0.285156)" fill="white"/>
    <rect width="7.16348" height="5.58822" rx="1.34409" transform="matrix(-1 0 0 1 207.864 0.285156)" fill="white"/>
    <rect width="7.16348" height="5.58822" rx="1.34409" transform="matrix(-1 0 0 1 179.277 0.285156)" fill="white"/>
    <rect width="7.16348" height="5.58822" rx="1.34409" transform="matrix(-1 0 0 1 150.689 0.285156)" fill="white"/>
    <rect width="7.16348" height="5.58822" rx="1.34409" transform="matrix(-1 0 0 1 122.102 0.285156)" fill="white"/>
    <rect width="7.16348" height="5.58822" rx="1.34409" transform="matrix(-1 0 0 1 93.5137 0.285156)" fill="white"/>
    <rect width="7.16348" height="5.58822" rx="1.34409" transform="matrix(-1 0 0 1 64.9258 0.285156)" fill="white"/>
    <rect width="7.16348" height="5.58822" rx="1.34409" transform="matrix(-1 0 0 1 36.3379 0.285156)" fill="white"/>
    <rect width="7.16348" height="5.58822" rx="1.34409" transform="matrix(-1 0 0 1 7.75098 0.285156)" fill="white"/>
    <rect width="7.16348" height="5.58822" rx="1.34409" transform="matrix(-1 0 0 1 265.04 28.2715)" fill="white"/>
    <rect width="7.16348" height="5.58822" rx="1.34409" transform="matrix(-1 0 0 1 236.452 28.2715)" fill="white"/>
    <rect width="7.16348" height="5.58822" rx="1.34409" transform="matrix(-1 0 0 1 207.864 28.2715)" fill="white"/>
    <rect width="7.16348" height="5.58822" rx="1.34409" transform="matrix(-1 0 0 1 179.277 28.2715)" fill="white"/>
    <rect width="7.16348" height="5.58822" rx="1.34409" transform="matrix(-1 0 0 1 150.689 28.2715)" fill="white"/>
    <rect width="7.16348" height="5.58822" rx="1.34409" transform="matrix(-1 0 0 1 122.102 28.2715)" fill="white"/>
    <rect width="7.16348" height="5.58822" rx="1.34409" transform="matrix(-1 0 0 1 93.5137 28.2715)" fill="white"/>
    <rect width="7.16348" height="5.58822" rx="1.34409" transform="matrix(-1 0 0 1 64.9258 28.2715)" fill="white"/>
    <rect width="7.16348" height="5.58822" rx="1.34409" transform="matrix(-1 0 0 1 36.3379 28.2715)" fill="white"/>
    <rect width="7.16348" height="5.58822" rx="1.34409" transform="matrix(-1 0 0 1 7.75098 28.2715)" fill="white"/>
    <rect width="7.16348" height="5.58822" rx="1.34409" transform="matrix(-1 0 0 1 265.04 56.2578)" fill="white"/>
    <rect width="7.16348" height="5.58822" rx="1.34409" transform="matrix(-1 0 0 1 236.452 56.2578)" fill="white"/>
    <rect width="7.16348" height="5.58822" rx="1.34409" transform="matrix(-1 0 0 1 207.864 56.2578)" fill="white"/>
    <rect width="7.16348" height="5.58822" rx="1.34409" transform="matrix(-1 0 0 1 179.277 56.2578)" fill="white"/>
    <rect width="7.16348" height="5.58822" rx="1.34409" transform="matrix(-1 0 0 1 150.689 56.2578)" fill="white"/>
    <rect width="7.16348" height="5.58822" rx="1.34409" transform="matrix(-1 0 0 1 122.102 56.2578)" fill="white"/>
    <rect width="7.16348" height="5.58822" rx="1.34409" transform="matrix(-1 0 0 1 93.5137 56.2578)" fill="white"/>
    <rect width="7.16348" height="5.58822" rx="1.34409" transform="matrix(-1 0 0 1 64.9258 56.2578)" fill="white"/>
    <rect width="7.16348" height="5.58822" rx="1.34409" transform="matrix(-1 0 0 1 36.3379 56.2578)" fill="white"/>
    <rect width="7.16348" height="5.58822" rx="1.34409" transform="matrix(-1 0 0 1 7.75098 56.2578)" fill="white"/>
    <rect width="7.16348" height="5.58822" rx="1.34409" transform="matrix(-1 0 0 1 265.04 84.2441)" fill="white"/>
    <rect width="7.16348" height="5.58822" rx="1.34409" transform="matrix(-1 0 0 1 236.452 84.2441)" fill="white"/>
    <rect width="7.16348" height="5.58822" rx="1.34409" transform="matrix(-1 0 0 1 207.864 84.2441)" fill="white"/>
    <rect width="7.16348" height="5.58822" rx="1.34409" transform="matrix(-1 0 0 1 179.277 84.2441)" fill="white"/>
    <rect width="7.16348" height="5.58822" rx="1.34409" transform="matrix(-1 0 0 1 150.689 84.2441)" fill="white"/>
    <rect width="7.16348" height="5.58822" rx="1.34409" transform="matrix(-1 0 0 1 122.102 84.2441)" fill="white"/>
    <rect width="7.16348" height="5.58822" rx="1.34409" transform="matrix(-1 0 0 1 93.5137 84.2441)" fill="white"/>
    <rect width="7.16348" height="5.58822" rx="1.34409" transform="matrix(-1 0 0 1 64.9258 84.2441)" fill="white"/>
    <rect width="7.16348" height="5.58822" rx="1.34409" transform="matrix(-1 0 0 1 36.3379 84.2441)" fill="white"/>
    <rect width="7.16348" height="5.58822" rx="1.34409" transform="matrix(-1 0 0 1 7.75098 84.2441)" fill="white"/>
    <rect width="7.16348" height="5.58822" rx="1.34409" transform="matrix(-1 0 0 1 265.04 112.23)" fill="white"/>
    <rect width="7.16348" height="5.58822" rx="1.34409" transform="matrix(-1 0 0 1 236.452 112.23)" fill="white"/>
    <rect width="7.16348" height="5.58822" rx="1.34409" transform="matrix(-1 0 0 1 207.864 112.23)" fill="white"/>
    <rect width="7.16348" height="5.58822" rx="1.34409" transform="matrix(-1 0 0 1 179.277 112.23)" fill="white"/>
    <rect width="7.16348" height="5.58822" rx="1.34409" transform="matrix(-1 0 0 1 150.689 112.23)" fill="white"/>
    <rect width="7.16348" height="5.58822" rx="1.34409" transform="matrix(-1 0 0 1 122.102 112.23)" fill="white"/>
    <rect width="7.16348" height="5.58822" rx="1.34409" transform="matrix(-1 0 0 1 93.5137 112.23)" fill="white"/>
    <rect width="7.16348" height="5.58822" rx="1.34409" transform="matrix(-1 0 0 1 64.9258 112.23)" fill="white"/>
    <rect width="7.16348" height="5.58822" rx="1.34409" transform="matrix(-1 0 0 1 36.3379 112.23)" fill="white"/>
    <rect width="7.16348" height="5.58822" rx="1.34409" transform="matrix(-1 0 0 1 7.75098 112.23)" fill="white"/>
    <rect width="7.16348" height="5.58822" rx="1.34409" transform="matrix(-1 0 0 1 265.04 140.215)" fill="white"/>
    <rect width="7.16348" height="5.58822" rx="1.34409" transform="matrix(-1 0 0 1 236.452 140.215)" fill="white"/>
    <rect width="7.16348" height="5.58822" rx="1.34409" transform="matrix(-1 0 0 1 207.864 140.215)" fill="white"/>
    <rect width="7.16348" height="5.58822" rx="1.34409" transform="matrix(-1 0 0 1 179.277 140.215)" fill="white"/>
    <rect width="7.16348" height="5.58822" rx="1.34409" transform="matrix(-1 0 0 1 150.689 140.215)" fill="white"/>
    <rect width="7.16348" height="5.58822" rx="1.34409" transform="matrix(-1 0 0 1 122.102 140.215)" fill="white"/>
    <rect width="7.16348" height="5.58822" rx="1.34409" transform="matrix(-1 0 0 1 93.5137 140.215)" fill="white"/>
    <rect width="7.16348" height="5.58822" rx="1.34409" transform="matrix(-1 0 0 1 64.9258 140.215)" fill="white"/>
    <rect width="7.16348" height="5.58822" rx="1.34409" transform="matrix(-1 0 0 1 36.3379 140.215)" fill="white"/>
    <rect width="7.16348" height="5.58822" rx="1.34409" transform="matrix(-1 0 0 1 7.75098 140.215)" fill="white"/>
    <rect width="7.16348" height="5.58822" rx="1.34409" transform="matrix(-1 0 0 1 265.04 168.201)" fill="white"/>
    <rect width="7.16348" height="5.58822" rx="1.34409" transform="matrix(-1 0 0 1 265.04 196.188)" fill="white"/>
    <rect width="7.16348" height="5.58822" rx="1.34409" transform="matrix(-1 0 0 1 265.04 224.174)" fill="white"/>
    <rect width="7.16348" height="5.58822" rx="1.34409" transform="matrix(-1 0 0 1 265.04 252.16)" fill="white"/>
    <rect width="7.16348" height="5.58822" rx="1.34409" transform="matrix(-1 0 0 1 236.452 168.201)" fill="white"/>
    <rect width="7.16348" height="5.58822" rx="1.34409" transform="matrix(-1 0 0 1 236.452 196.188)" fill="white"/>
    <rect width="7.16348" height="5.58822" rx="1.34409" transform="matrix(-1 0 0 1 236.452 224.174)" fill="white"/>
    <rect width="7.16348" height="5.58822" rx="1.34409" transform="matrix(-1 0 0 1 236.452 252.16)" fill="white"/>
    <rect width="7.16348" height="5.58822" rx="1.34409" transform="matrix(-1 0 0 1 207.864 168.201)" fill="white"/>
    <rect width="7.16348" height="5.58822" rx="1.34409" transform="matrix(-1 0 0 1 207.864 196.188)" fill="white"/>
    <rect width="7.16348" height="5.58822" rx="1.34409" transform="matrix(-1 0 0 1 207.864 224.174)" fill="white"/>
    <rect width="7.16348" height="5.58822" rx="1.34409" transform="matrix(-1 0 0 1 207.864 252.16)" fill="white"/>
    <rect width="7.16348" height="5.58822" rx="1.34409" transform="matrix(-1 0 0 1 179.277 168.201)" fill="white"/>
    <rect width="7.16348" height="5.58822" rx="1.34409" transform="matrix(-1 0 0 1 179.277 196.188)" fill="white"/>
    <rect width="7.16348" height="5.58822" rx="1.34409" transform="matrix(-1 0 0 1 179.277 224.174)" fill="white"/>
    <rect width="7.16348" height="5.58822" rx="1.34409" transform="matrix(-1 0 0 1 179.277 252.16)" fill="white"/>
    <rect width="7.16348" height="5.58822" rx="1.34409" transform="matrix(-1 0 0 1 150.689 168.201)" fill="white"/>
    <rect width="7.16348" height="5.58822" rx="1.34409" transform="matrix(-1 0 0 1 150.689 196.188)" fill="white"/>
    <rect width="7.16348" height="5.58822" rx="1.34409" transform="matrix(-1 0 0 1 150.689 224.174)" fill="white"/>
    <rect width="7.16348" height="5.58822" rx="1.34409" transform="matrix(-1 0 0 1 150.689 252.16)" fill="white"/>
    <rect width="7.16348" height="5.58822" rx="1.34409" transform="matrix(-1 0 0 1 122.102 168.201)" fill="white"/>
    <rect width="7.16348" height="5.58822" rx="1.34409" transform="matrix(-1 0 0 1 122.102 196.188)" fill="white"/>
    <rect width="7.16348" height="5.58822" rx="1.34409" transform="matrix(-1 0 0 1 122.102 224.174)" fill="white"/>
    <rect width="7.16348" height="5.58822" rx="1.34409" transform="matrix(-1 0 0 1 122.102 252.16)" fill="white"/>
    <rect width="7.16348" height="5.58822" rx="1.34409" transform="matrix(-1 0 0 1 93.5137 168.201)" fill="white"/>
    <rect width="7.16348" height="5.58822" rx="1.34409" transform="matrix(-1 0 0 1 93.5137 196.188)" fill="white"/>
    <rect width="7.16348" height="5.58822" rx="1.34409" transform="matrix(-1 0 0 1 93.5137 224.174)" fill="white"/>
    <rect width="7.16348" height="5.58822" rx="1.34409" transform="matrix(-1 0 0 1 93.5137 252.16)" fill="white"/>
    <rect width="7.16348" height="5.58822" rx="1.34409" transform="matrix(-1 0 0 1 64.9258 168.201)" fill="white"/>
    <rect width="7.16348" height="5.58822" rx="1.34409" transform="matrix(-1 0 0 1 64.9258 196.188)" fill="white"/>
    <rect width="7.16348" height="5.58822" rx="1.34409" transform="matrix(-1 0 0 1 64.9258 224.174)" fill="white"/>
    <rect width="7.16348" height="5.58822" rx="1.34409" transform="matrix(-1 0 0 1 64.9258 252.16)" fill="white"/>
    <rect width="7.16348" height="5.58822" rx="1.34409" transform="matrix(-1 0 0 1 36.3379 168.201)" fill="white"/>
    <rect width="7.16348" height="5.58822" rx="1.34409" transform="matrix(-1 0 0 1 36.3379 196.188)" fill="white"/>
    <rect width="7.16348" height="5.58822" rx="1.34409" transform="matrix(-1 0 0 1 36.3379 224.174)" fill="white"/>
    <rect width="7.16348" height="5.58822" rx="1.34409" transform="matrix(-1 0 0 1 36.3379 252.16)" fill="white"/>
    <rect width="7.16348" height="5.58822" rx="1.34409" transform="matrix(-1 0 0 1 7.75098 168.201)" fill="white"/>
    <rect width="7.16348" height="5.58822" rx="1.34409" transform="matrix(-1 0 0 1 7.75098 196.188)" fill="white"/>
    <rect width="7.16348" height="5.58822" rx="1.34409" transform="matrix(-1 0 0 1 7.75098 224.174)" fill="white"/>
    <rect width="7.16348" height="5.58822" rx="1.34409" transform="matrix(-1 0 0 1 7.75098 252.16)" fill="white"/>
    </g>
    <path d="M89.844 250.225L85.4798 261.975C85.4798 261.975 91.5018 264.683 92.1293 267.643C92.7692 270.666 89.3055 272.662 89.3055 272.662L100.105 285.062L66.5591 281.174L69.6387 250.226H89.844V250.225Z" fill="#50608E"/>
    <path d="M58.7851 21.2246C58.7851 21.2246 47.1488 22.5893 42.9167 33.0323C38.6847 43.4753 41.1873 56.9883 41.1873 56.9883L62.665 52.3746L61.7324 33.8278L58.7851 21.2246Z" fill="black"/>
    <path d="M68.7097 40.9493C68.7097 40.9493 62.0775 41.2253 58.2568 32.573C54.4361 23.9207 59.2166 17.1504 59.2166 17.1504L67.5436 21.226L72.0684 36.6821L68.7097 40.9493Z" fill="black"/>
    <path d="M46.4763 261.949V281.171L75.4521 279.103V260.734L46.4763 261.949Z" fill="#F3B29D"/>
    <path d="M95.5765 105.438C95.5765 105.438 126.231 162.325 126.466 181.066C126.701 199.807 85.4794 261.974 85.4794 261.974C85.4794 261.974 74.2767 266.281 57.8204 265.784C41.3641 265.288 38.7786 263.525 38.7786 263.525C38.7786 263.525 41.6 130.18 48.1815 117.701C54.7643 105.222 95.5765 105.438 95.5765 105.438Z" fill="#1E1F33"/>
    <path d="M71.9257 44.7611C71.9257 44.7611 57.3507 44.3039 49.8279 50.6759C42.3051 57.0479 47.2412 112.639 47.2412 112.639C47.2412 112.639 66.8673 114.177 80.9148 112.639C94.9636 111.101 101.312 109.014 101.312 109.014C101.312 109.014 102.957 57.9127 99.1956 51.767C95.4342 45.6224 71.9257 44.7611 71.9257 44.7611Z" fill="#87B1B3"/>
    <path d="M68.9455 37.209L68.0215 47.3968C68.0215 47.3968 69.7212 50.4818 76.0545 51.4713C80.772 52.209 82.5322 51.3373 82.5322 51.3373L82.3383 46.1245L82.1419 41.041L70.8416 37.762L68.9455 37.209Z" fill="#F3B29D"/>
    <path d="M70.8412 37.7598C70.8437 38.0403 70.9264 38.3775 71.0685 38.7677C73.0462 44.0498 79.6141 45.6754 82.3379 46.1223L82.1415 41.0387L70.8412 37.7598Z" fill="black"/>
    <path d="M86.6766 18.0111C86.6766 18.0111 91.2397 31.2377 88.3405 38.157C85.4413 45.0751 78.6226 43.304 74.6191 41.5387C70.6156 39.7734 68.943 37.2126 68.943 37.2126C68.943 37.2126 64.9333 38.0774 62.7012 34.4636C60.469 30.8498 62.4825 27.1287 64.7925 26.4486C67.1024 25.7697 69.5754 27.5108 69.5754 27.5108L67.9066 23.6349C67.9066 23.6349 78.5991 5.73465 86.6766 18.0111Z" fill="#F3B29D"/>
    <path d="M68.7107 32.9447C68.8231 32.9447 68.9343 32.9008 69.0121 32.8154C69.1541 32.6595 69.1356 32.4263 68.9688 32.2924L64.3576 28.6024C64.1896 28.4696 63.9388 28.4881 63.798 28.6428C63.656 28.7987 63.6745 29.0319 63.8412 29.1658L68.4525 32.8558C68.5266 32.9147 68.618 32.9447 68.7107 32.9447Z" fill="black"/>
    <path d="M64.2387 32.5317C64.261 32.5317 64.2819 32.5294 64.3054 32.5271L67.6098 32.0052C67.826 31.9706 67.9717 31.7801 67.9347 31.5769C67.8989 31.3749 67.7049 31.2375 67.4776 31.2733L64.1732 31.7951C63.9571 31.8297 63.8113 32.0202 63.8484 32.2235C63.8805 32.4036 64.0485 32.5317 64.2387 32.5317Z" fill="black"/>
    <path d="M77.0971 22.6267C77.2046 22.6267 77.3121 22.5863 77.3899 22.5054C78.9513 20.9121 80.6288 21.8901 80.7004 21.9316C80.8845 22.0402 81.1303 21.9917 81.2476 21.8219C81.3674 21.6511 81.3168 21.4225 81.1328 21.3105C80.3471 20.8279 78.4263 20.3487 76.8031 22.0044C76.6561 22.1556 76.6672 22.39 76.8291 22.5285C76.9044 22.5943 77.0008 22.6267 77.0971 22.6267Z" fill="black"/>
    <path d="M87.7111 22.9854C87.8136 22.9854 87.9174 22.9485 87.9952 22.8735C88.1484 22.7268 88.1459 22.4924 87.989 22.3493C86.5413 21.0261 85.4493 21.3517 85.3319 21.3933C85.1269 21.4649 85.0219 21.6785 85.0997 21.8701C85.1738 22.0595 85.3974 22.1576 85.6013 22.0906C85.6445 22.0791 86.3572 21.8955 87.4344 22.8792C87.511 22.9508 87.611 22.9854 87.7111 22.9854Z" fill="black"/>
    <path d="M68.2783 44.5627C68.2783 44.5627 78.4446 184.315 77.6083 185.905C76.772 187.495 57.5413 190.277 50.7534 189.085C43.9656 187.892 40.2203 185.905 39.1295 184.712C38.0376 183.52 39.8374 92.134 39.8374 92.134L38.7787 54.5981C38.7787 54.5981 53.4575 44.513 68.2783 44.5627Z" fill="#F5F7F7"/>
    <path d="M53.1399 79.0376H66.0275C67.1294 79.0376 68.0225 78.2028 68.0225 77.1729V75.097C68.0225 74.0672 67.1294 73.2324 66.0275 73.2324H53.1399C52.038 73.2324 51.1449 74.0672 51.1449 75.097V77.1729C51.1449 78.2028 52.038 79.0376 53.1399 79.0376Z" fill="#92B4EA"/>
    <path d="M85.2223 33.4037C85.4026 33.4037 85.5644 33.2883 85.6089 33.1185C86.707 28.7901 84.008 26.7015 83.8919 26.6149C83.7202 26.4868 83.4731 26.5121 83.336 26.6715C83.1989 26.8297 83.2248 27.0629 83.394 27.1922C83.4929 27.2672 85.8152 29.0926 84.8368 32.9465C84.7862 33.1462 84.9171 33.346 85.1308 33.3933C85.1617 33.4003 85.1914 33.4037 85.2223 33.4037Z" fill="black"/>
    <path d="M87.2197 27.8767C87.2419 27.8767 87.2666 27.8744 87.2913 27.871C87.5075 27.834 87.6496 27.6401 87.61 27.4392L87.1727 25.2155L87.8942 24.3726C88.03 24.2122 88.0029 23.9789 87.8312 23.8508C87.6632 23.7226 87.4111 23.7492 87.274 23.9085L86.439 24.8841C86.3673 24.9684 86.3377 25.0769 86.3587 25.1831L86.8293 27.5731C86.8652 27.7509 87.0319 27.8767 87.2197 27.8767Z" fill="black"/>
    <path d="M80.7954 36.5828C81.4946 36.5828 82.0541 36.3577 82.09 36.3426C82.2209 36.2884 82.3123 36.1718 82.3234 36.0367C82.337 35.9028 82.2715 35.7723 82.1517 35.6961L78.7337 33.5209C78.604 33.4389 78.4348 33.4355 78.3014 33.5128C78.168 33.5902 78.0963 33.7333 78.1173 33.8777C78.2927 35.0749 78.7782 35.8889 79.5626 36.2988C79.974 36.5135 80.405 36.5828 80.7954 36.5828ZM80.9609 35.8346C80.6348 35.8577 80.2741 35.8219 79.9468 35.6488C79.5923 35.4617 79.3205 35.135 79.1352 34.672L80.9609 35.8346Z" fill="black"/>
    <path d="M95.7554 49.0664C95.7554 49.0664 102.819 52.8153 109.917 55.0112C116.543 57.0606 121.533 57.2303 121.533 57.2303C121.533 57.2303 121.553 65.1783 121.275 73.4657C120.987 82.0106 122.205 88.0305 122.205 88.0305C122.205 88.0305 100.141 92.4629 95.0266 85.883C89.9138 79.3043 95.7554 49.0664 95.7554 49.0664Z" fill="#7772D3"/>
    <path d="M138.47 37.72C138.47 37.72 142.553 27.0796 145.923 26.8464C149.291 26.6143 145.311 35.2504 145.311 35.2504L154.434 31.9899C154.434 31.9899 164.815 29.2848 166.88 30.1288C168.944 30.9728 165.545 34.1201 165.545 34.1201C165.545 34.1201 172.937 32.0465 171.9 35.4144C170.864 38.7834 165.806 40.7207 165.806 40.7207C165.806 40.7207 173.032 38.3273 171.4 42.2736C170.518 44.4072 154.628 53.4001 143.92 53.0791C133.212 52.7582 136.112 46.0744 136.112 46.0744L138.47 37.72Z" fill="#F3B29D"/>
    <path d="M161.822 42.8586C161.934 42.8586 162.046 42.8147 162.123 42.7281C162.265 42.5723 162.247 42.339 162.08 42.2051L152.887 34.8644C152.72 34.7316 152.47 34.7489 152.328 34.906C152.186 35.0618 152.204 35.2951 152.371 35.429L161.564 42.7697C161.639 42.8286 161.731 42.8586 161.822 42.8586Z" fill="black"/>
    <path d="M142.499 47.043C142.661 47.0315 145.747 46.7763 147.183 44.4118C148.376 42.4455 148.038 39.6688 146.181 36.1578C146.083 35.9742 145.846 35.8992 145.649 35.9893C145.452 36.0805 145.372 36.3021 145.47 36.4869C147.204 39.7635 147.548 42.307 146.494 44.0458C145.263 46.072 142.496 46.3006 142.468 46.3029C142.249 46.3191 142.086 46.4981 142.103 46.7024C142.119 46.8964 142.294 47.043 142.499 47.043Z" fill="black"/>
    <path d="M85.4806 261.977C85.6894 261.977 85.8635 261.824 85.8759 261.627C88.5107 219.358 87.6769 151.473 87.6189 147.125L101.875 139.233C102.063 139.128 102.126 138.902 102.014 138.725C101.902 138.551 101.658 138.493 101.469 138.596L87.0161 146.597C86.8938 146.665 86.8209 146.789 86.8221 146.92C86.832 147.628 87.7906 218.148 85.0841 261.584C85.0705 261.789 85.2385 261.964 85.4572 261.976C85.4646 261.977 85.4732 261.977 85.4806 261.977Z" fill="#87B1B3"/>
    <path d="M87.3522 192.989C87.3942 192.989 87.4349 192.982 87.4782 192.97C88.9432 192.515 101.811 188.43 102.624 184.877C102.726 184.428 102.692 183.757 101.941 183.116C101.307 182.574 100.52 182.344 99.59 182.42C94.744 182.843 87.3484 192.006 87.0359 192.396C86.9322 192.525 86.9297 192.704 87.031 192.835C87.1063 192.934 87.2274 192.989 87.3522 192.989ZM99.9433 183.148C100.521 183.148 101.001 183.318 101.406 183.663C101.796 183.998 101.937 184.335 101.848 184.724C101.298 187.126 92.9455 190.373 88.496 191.858C90.5639 189.458 96.0546 183.475 99.6641 183.161C99.7592 183.151 99.8531 183.148 99.9433 183.148Z" fill="#87B1B3"/>
    <path d="M49.0269 300.786C47.0109 300.715 45.4075 299.083 45.3791 297.069C45.2692 289.113 43.9808 271.289 45.5335 271.271C47.5149 271.248 67.4732 276.086 67.4732 276.086C67.4732 276.086 67.8907 265.054 76.1251 266.937C82.4435 268.381 89.8354 275.306 92.9335 278.451C93.9167 279.45 95.157 280.138 96.5256 280.441C102.41 281.742 118.611 286.051 118.952 294.142C119.368 304.032 115.108 302.951 113.126 302.975C111.428 302.994 62.7718 301.274 49.0269 300.786Z" fill="#1E1F32"/>
    <path d="M77.124 279.472C77.2859 279.472 77.4378 279.379 77.4971 279.229C77.5725 279.037 77.4674 278.824 77.2611 278.753L67.7779 275.506C67.5766 275.438 67.3444 275.534 67.269 275.727C67.1937 275.918 67.2987 276.132 67.5049 276.202L76.9881 279.449C77.0326 279.464 77.0783 279.472 77.124 279.472Z" fill="white"/>
    <path d="M80.3098 27.9317C80.3332 27.9317 80.3567 27.9294 80.3814 27.9259C80.5976 27.889 80.7396 27.695 80.7001 27.4941L80.2653 25.2855L81.2066 24.3341C81.356 24.184 81.3462 23.9496 81.1843 23.8099C81.0262 23.6702 80.773 23.6795 80.6248 23.8307L79.5488 24.9183C79.4636 25.0049 79.4266 25.1227 79.45 25.237L79.9206 27.6281C79.9552 27.807 80.122 27.9317 80.3098 27.9317Z" fill="black"/>
    <path d="M69.5736 27.5093L70.8397 28.8821L70.206 26.9032C70.206 26.9032 73.1892 26.8847 77.0951 24.5779C80.9998 22.2711 81.9275 16.668 81.9275 16.668C81.9275 16.668 83.6199 17.4092 85.4703 18.7555C87.3207 20.1017 87.7123 21.5437 87.7123 21.5437C87.7123 21.5437 92.6065 8.86781 82.3376 7.22025C72.0688 5.57269 64.7807 13.7089 64.7807 13.7089C64.7807 13.7089 58.9033 14.4721 58.3153 19.8546C57.7273 25.2383 61.7518 29.4132 61.7518 29.4132C61.7518 29.4132 64.3768 24.9474 69.5736 27.5093Z" fill="black"/>
    <path d="M131.67 41.9434L156.984 54.7151C156.984 54.7151 147.868 79.3211 131.076 85.5534C114.796 91.5964 106.249 90.2536 106.249 90.2536L121.289 162.021C121.289 162.021 98.7696 112.532 98.278 109.823C97.7864 107.115 82.3207 45.6957 82.3207 45.6957C82.3207 45.6957 85.9672 45.2073 93.9903 48.0902C102.012 50.9743 110.647 52.9036 118.052 52.9036C125.458 52.9036 131.67 41.9434 131.67 41.9434Z" fill="#F5F7F7"/>
    <path d="M82.5323 51.3352L83.1475 55.9165C83.1475 55.9165 69.6126 50.6194 68.7108 48.241C67.8079 45.8637 81.9295 49.571 81.9295 49.571L82.5323 51.3352Z" fill="#F3B29D"/>
    <path d="M83.1476 56.288C83.2291 56.288 83.3107 56.2637 83.3786 56.2187C83.4898 56.1448 83.5528 56.0224 83.5441 55.8954L83.0192 47.6553C83.0056 47.4521 82.8388 47.3205 82.5991 47.3066C82.3805 47.3193 82.215 47.4948 82.2273 47.6992L82.714 55.3447C80.2571 54.3679 70.8245 50.5025 69.0395 48.0352C68.916 47.8643 68.6677 47.8216 68.4898 47.9359C68.3083 48.0513 68.2613 48.2811 68.3836 48.4508C70.5614 51.4631 82.4917 56.0663 82.9982 56.2614C83.0451 56.2787 83.0969 56.288 83.1476 56.288Z" fill="white"/>
    <path d="M53.5509 181.676C58.5464 181.676 67.6022 180.909 68.3359 180.015C69.0067 179.199 68.1692 159.158 67.7801 150.578C67.7702 150.38 67.596 150.223 67.3835 150.223H45.5673C45.3475 150.223 45.1708 150.389 45.1708 150.593V179.789C45.1708 179.91 45.2338 180.022 45.3388 180.091C45.4117 180.14 47.1769 181.28 51.5276 181.614C52.0649 181.657 52.7579 181.676 53.5509 181.676ZM67.003 150.965C67.5033 162.043 68.0864 178.561 67.6738 179.615C66.887 180.209 55.9844 181.217 51.5905 180.876C48.2145 180.618 46.479 179.85 45.9626 179.582V150.966L67.003 150.965Z" fill="#1E1F32"/>
    <path d="M93.0849 122.767L125.296 122.842C126.467 122.844 127.664 121.915 127.969 120.764L140.301 74.266C140.606 73.1161 139.903 72.1809 138.732 72.1786L106.52 72.1035C105.349 72.1012 104.152 73.0306 103.847 74.1817L91.5149 120.679C91.2123 121.83 91.9139 122.764 93.0849 122.767Z" fill="#1E1F32"/>
    <path d="M96.8464 122.767L129.059 122.842C130.23 122.844 131.427 121.915 131.732 120.764L144.064 74.266C144.369 73.1161 143.666 72.1809 142.495 72.1786L110.282 72.1035C109.111 72.1012 107.914 73.0306 107.609 74.1817L95.2776 120.679C94.9737 121.83 95.6753 122.764 96.8464 122.767Z" fill="#1E1F32"/>
    <path d="M117.897 63.88C117.96 63.88 118.026 63.8765 118.091 63.8708C118.69 63.8165 119.166 63.544 119.5 63.0626C121.18 60.6449 118.543 53.1691 118.429 52.8516C118.375 52.7004 118.223 52.5977 118.053 52.5977C117.876 52.5988 117.725 52.7039 117.673 52.8574C117.386 53.7176 114.909 61.3169 116.667 63.3397C116.974 63.6953 117.397 63.88 117.897 63.88ZM118.063 54.2602C118.848 56.8118 119.872 61.1679 118.836 62.6585C118.633 62.9494 118.373 63.0995 118.014 63.1319C117.697 63.1619 117.462 63.0787 117.283 62.8732C116.202 61.6286 117.265 56.9734 118.063 54.2602Z" fill="#1E1F32"/>
    <path d="M81.5808 89.9951C81.5808 89.9951 91.4902 86.8443 93.3814 86.954C95.2726 87.0637 100.053 88.4734 100.053 88.4734L99.3823 91.003C99.3823 91.003 116.038 92.7083 116.03 95.7783C116.025 97.8692 108.803 97.5113 108.803 97.5113C108.803 97.5113 116.269 98.4522 116.033 100.829C115.797 103.207 106.578 102.963 106.578 102.963C106.578 102.963 114.207 104.396 111.346 106.475C108.485 108.555 84.0736 110.932 80.3838 105.287C76.6953 99.6426 81.5808 89.9951 81.5808 89.9951Z" fill="#F3B29D"/>
    <path d="M38.7783 54.5996C38.7783 54.5996 10.9476 79.3176 16.8115 100.496C24.569 128.511 84.5576 112.209 84.5576 112.209L82.5317 86.0926L46.4889 84.2464L38.7783 54.5996Z" fill="#F5F7F7"/>
    <path d="M40.6614 85.1993C44.4426 85.1993 48.7969 84.7721 49.0736 84.7444C49.249 84.7271 49.3911 84.6035 49.422 84.4407C49.4516 84.2779 49.3651 84.1163 49.207 84.0436C43.8484 81.5636 37.189 82.1281 35.4979 83.2515C35.0829 83.5275 35.026 83.8115 35.052 84.002C35.0915 84.3045 35.3571 84.5469 35.8401 84.7201C36.8333 85.0792 38.6664 85.1993 40.6614 85.1993ZM47.4665 84.1394C44.5266 84.3749 38.1847 84.7744 36.1255 84.0297C35.9933 83.9812 35.9155 83.9396 35.8735 83.9108C36.4886 83.2896 42.0115 82.1836 47.4665 84.1394Z" fill="#1E1F32"/>
    <path d="M99.8373 91.0047C100.025 91.0047 100.192 90.8801 100.226 90.7011C100.267 90.5002 100.125 90.3062 99.9089 90.2681L95.5287 89.505C95.3137 89.4726 95.1062 89.6008 95.0667 89.8017C95.0259 90.0026 95.168 90.1966 95.3841 90.2347L99.7644 90.9978C99.7891 91.0024 99.8126 91.0047 99.8373 91.0047Z" fill="black"/>
    <path d="M110.036 97.845C110.233 97.845 110.405 97.7065 110.429 97.5183C110.456 97.3151 110.301 97.1304 110.084 97.1061L98.917 95.8419C98.6848 95.8211 98.5007 95.9619 98.476 96.1652C98.4489 96.3684 98.6033 96.5531 98.8207 96.5773L109.988 97.8416C110.004 97.8439 110.02 97.845 110.036 97.845Z" fill="black"/>
    <path d="M107.95 103.604C108.147 103.604 108.318 103.467 108.343 103.28C108.37 103.077 108.215 102.892 107.999 102.867L96.6384 101.522C96.4074 101.501 96.2234 101.642 96.1962 101.844C96.1678 102.047 96.3222 102.232 96.5396 102.257L107.9 103.601C107.918 103.603 107.934 103.604 107.95 103.604Z" fill="black"/>
    <path d="M120.197 79.4099H128.031C130.074 79.4099 131.851 78.1167 132.353 76.2648L133.455 72.1962C133.508 71.9976 133.381 71.7955 133.168 71.7459C132.951 71.6951 132.74 71.8174 132.685 72.0149L131.583 76.0836C131.172 77.6053 129.711 78.6686 128.031 78.6686H120.197C119.275 78.6686 118.417 78.2841 117.838 77.6145C117.26 76.9437 117.042 76.0778 117.238 75.2361L117.942 72.2158C117.989 72.016 117.854 71.8186 117.64 71.7747C117.417 71.7343 117.213 71.859 117.168 72.0588L116.464 75.0791C116.215 76.1401 116.491 77.2335 117.221 78.0798C117.95 78.9238 119.034 79.4099 120.197 79.4099Z" fill="white"/>
    <path d="M64.1089 57.5699C64.1484 57.5699 64.1892 57.5653 64.2312 57.556C64.5153 57.4937 64.6907 57.227 64.624 56.9614C63.5135 52.5718 63.6963 49.115 65.1527 46.9629C66.283 45.2957 67.7641 44.984 67.8271 44.9713C68.1112 44.9147 68.2953 44.6538 68.236 44.3871C68.1767 44.1215 67.9049 43.9426 67.6158 44.0015C67.5368 44.0165 65.6641 44.3871 64.2843 46.3983C62.6253 48.8125 62.3944 52.4436 63.5938 57.1889C63.6519 57.4163 63.8693 57.5699 64.1089 57.5699Z" fill="#1E1F32"/>
    <path d="M89.8432 68.9089C90.1323 68.9089 90.3695 68.6907 90.3719 68.4193C90.3806 67.6492 90.488 49.5226 83.2036 44.5696C82.9702 44.4091 82.6379 44.4564 82.4637 44.6781C82.292 44.8986 82.3439 45.2081 82.5811 45.3685C89.4257 50.0226 89.3158 68.2254 89.3145 68.4089C89.3108 68.6826 89.5468 68.9054 89.8383 68.9089H89.8432Z" fill="#1E1F32"/>
    <path d="M65.1293 73.859C65.2009 73.859 65.2726 73.8452 65.3418 73.8175C65.6098 73.7078 65.7309 73.4168 65.6147 73.1663C65.5616 73.0555 60.4414 61.9879 64.2263 58.1605C64.6982 57.6837 65.2516 57.4747 65.9372 57.5336C69.3823 57.8153 74.7434 64.5764 76.5185 67.158C76.6791 67.3889 77.0089 67.4524 77.2498 67.3069C77.4956 67.1591 77.5673 66.8532 77.4091 66.6234C77.1361 66.2274 70.6942 56.9309 66.0298 56.5476C65.023 56.4667 64.1485 56.7808 63.4493 57.4897C59.1987 61.7904 64.4202 73.0843 64.645 73.5635C64.7315 73.7482 64.9254 73.859 65.1293 73.859Z" fill="#1E1F32"/>
    <path d="M86.6853 69.3788C86.6853 71.009 88.0984 72.3298 89.8426 72.3298C91.5868 72.3298 93 71.009 93 69.3788C93 67.7486 91.5868 66.4277 89.8426 66.4277C88.0997 66.4277 86.6853 67.7486 86.6853 69.3788Z" fill="#1E1F32"/>
    <path d="M88.6141 69.3793C88.6141 70.0131 89.1638 70.528 89.8432 70.528C90.5213 70.528 91.0723 70.0131 91.0723 69.3793C91.0723 68.7454 90.5213 68.2305 89.8432 68.2305C89.1638 68.2305 88.6141 68.7443 88.6141 69.3793Z" fill="#A37B90"/>
    <path d="M74.6004 67.8828H78.6842C78.9757 67.8828 79.2129 67.6612 79.2129 67.3887C79.2129 67.1162 78.977 66.8945 78.6842 66.8945H74.6004C74.3089 66.8945 74.0717 67.1162 74.0717 67.3887C74.0717 67.6612 74.3089 67.8828 74.6004 67.8828Z" fill="#1E1F32"/>
    <path d="M64.5281 75.4856C64.7047 75.4856 64.8789 75.4013 64.979 75.2501L67.1148 71.9965C67.2667 71.7633 67.1889 71.4596 66.9394 71.3165C66.696 71.1756 66.3662 71.246 66.2118 71.4793L64.076 74.7328C63.924 74.966 64.0006 75.2697 64.2514 75.4128C64.3379 75.4625 64.433 75.4856 64.5281 75.4856Z" fill="#1E1F32"/>
    </svg>
    