<svg width="716" height="439" viewBox="0 0 716 439" fill="none" xmlns="http://www.w3.org/2000/svg">
    <g clip-path="url(#clip0_1054_684)">
    <path d="M150.589 445.294L127.68 437.507C124.675 423.803 124.696 409.482 127.74 395.789C137.174 418.533 164.13 423.741 179.665 441.776C189.403 453.254 193.962 469.082 192.055 484.788L197.069 502.997C174.356 501.156 153.501 488.243 139.996 467.658C136.303 461.91 133.269 455.663 130.967 449.064C140.683 447.827 150.589 445.294 150.589 445.294Z" fill="#F2F2F2"/>
    <path d="M551.108 504.205C551.104 504.738 550.915 505.249 550.581 505.627C550.247 506.001 549.795 506.21 549.323 506.208H542.151C541.169 506.212 540.37 505.321 540.367 504.219V260.691C540.367 255.322 538.761 250.966 536.79 250.956H90.3084C88.3279 250.966 86.7311 255.322 86.7222 260.691V502.713C86.7191 503.744 86.0215 504.605 85.1075 504.706C83.6623 504.866 82.2171 505.006 80.7809 505.136C80.7452 505.136 80.7095 505.146 80.6738 505.146C79.8888 505.227 79.1037 505.287 78.3187 505.357H78.3098C77.8994 504.526 77.5069 503.674 77.1054 502.823C76.9767 502.534 76.9096 502.215 76.9092 501.891V248.061C76.9092 246.579 76.9627 245.086 77.0519 243.614C77.1792 241.593 77.4025 239.58 77.721 237.585C79.2286 228.281 82.6364 221.981 86.5081 221.961H540.581C541.146 221.965 541.704 222.098 542.222 222.352C542.983 222.73 543.671 223.27 544.247 223.944C545.03 224.857 545.699 225.885 546.237 226.999C548.146 230.774 549.511 236.403 549.992 242.953C549.992 243.013 550.001 243.073 550.001 243.133C550.126 244.756 550.189 246.408 550.18 248.061L550.305 269.524L550.385 282.324L550.626 322.486L550.715 336.747L551.108 504.205Z" fill="#E6E6E6"/>
    <path d="M385.403 147.713H339.902C338.561 147.715 337.476 148.937 337.478 150.441V231.139H387.833V150.441C387.834 148.935 386.747 147.714 385.406 147.713H385.403ZM362.806 193.564C359.844 193.549 357.446 190.857 357.433 187.532V178.225C357.433 174.893 359.838 172.192 362.805 172.192C365.773 172.192 368.178 174.893 368.178 178.225V187.532C368.165 190.857 365.767 193.549 362.806 193.564Z" fill="#CCCCCC"/>
    <path d="M337.321 228.559V236.344C337.323 237.184 337.929 237.865 338.677 237.866H386.634C387.381 237.862 387.986 237.183 387.99 236.344V228.559H337.321Z" fill="#3F3D56"/>
    <path d="M460.749 21.7754H266.248C262.769 21.7816 259.95 24.9466 259.944 28.8527V176.206C259.948 180.113 262.768 183.28 266.248 183.283H460.749C464.229 183.28 467.05 180.113 467.053 176.206V28.8527C467.048 24.9466 464.229 21.7816 460.749 21.7754Z" fill="#E6E6E6"/>
    <path d="M459.126 26.8867H267.873C266.01 26.8913 264.502 28.588 264.502 30.6796V174.381C264.505 176.47 266.013 178.162 267.873 178.166H459.126C460.986 178.162 462.494 176.47 462.497 174.381V30.6795C462.497 28.588 460.989 26.8913 459.126 26.8867Z" fill="white"/>
    <path d="M421.873 240.577H308.088C306.932 240.577 305.995 239.525 305.995 238.227C305.995 238.064 306.01 237.902 306.04 237.743L307.806 228.329C308.013 227.244 308.865 226.467 309.853 226.463H420.108C421.096 226.467 421.949 227.244 422.156 228.329L423.921 237.743C424.159 239.013 423.435 240.259 422.304 240.526C422.162 240.56 422.018 240.577 421.873 240.577Z" fill="#CCCCCC"/>
    <path d="M313.73 228.156H311.097C310.856 228.156 310.661 228.375 310.661 228.645V230.028C310.661 230.298 310.856 230.517 311.097 230.517H313.73C313.971 230.517 314.166 230.298 314.166 230.028V228.645C314.166 228.375 313.971 228.156 313.73 228.156Z" fill="#E6E6E6"/>
    <path d="M320.74 228.156H318.106C317.866 228.156 317.671 228.375 317.671 228.645V230.028C317.671 230.298 317.866 230.517 318.106 230.517H320.74C320.98 230.517 321.175 230.298 321.175 230.028V228.645C321.175 228.375 320.98 228.156 320.74 228.156Z" fill="#E6E6E6"/>
    <path d="M327.749 228.156H325.115C324.875 228.156 324.68 228.375 324.68 228.645V230.028C324.68 230.298 324.875 230.517 325.115 230.517H327.749C327.989 230.517 328.184 230.298 328.184 230.028V228.645C328.184 228.375 327.989 228.156 327.749 228.156Z" fill="#E6E6E6"/>
    <path d="M334.757 228.156H332.124C331.883 228.156 331.688 228.375 331.688 228.645V230.028C331.688 230.298 331.883 230.517 332.124 230.517H334.757C334.998 230.517 335.193 230.298 335.193 230.028V228.645C335.193 228.375 334.998 228.156 334.757 228.156Z" fill="#E6E6E6"/>
    <path d="M341.766 228.156H339.133C338.892 228.156 338.697 228.375 338.697 228.645V230.028C338.697 230.298 338.892 230.517 339.133 230.517H341.766C342.007 230.517 342.202 230.298 342.202 230.028V228.645C342.202 228.375 342.007 228.156 341.766 228.156Z" fill="#E6E6E6"/>
    <path d="M348.775 228.156H346.142C345.901 228.156 345.706 228.375 345.706 228.645V230.028C345.706 230.298 345.901 230.517 346.142 230.517H348.775C349.016 230.517 349.211 230.298 349.211 230.028V228.645C349.211 228.375 349.016 228.156 348.775 228.156Z" fill="#E6E6E6"/>
    <path d="M355.784 228.156H353.15C352.91 228.156 352.715 228.375 352.715 228.645V230.028C352.715 230.298 352.91 230.517 353.15 230.517H355.784C356.024 230.517 356.219 230.298 356.219 230.028V228.645C356.219 228.375 356.024 228.156 355.784 228.156Z" fill="#E6E6E6"/>
    <path d="M362.793 228.156H360.159C359.919 228.156 359.724 228.375 359.724 228.645V230.028C359.724 230.298 359.919 230.517 360.159 230.517H362.793C363.033 230.517 363.228 230.298 363.228 230.028V228.645C363.228 228.375 363.033 228.156 362.793 228.156Z" fill="#E6E6E6"/>
    <path d="M369.802 228.156H367.169C366.928 228.156 366.733 228.375 366.733 228.645V230.028C366.733 230.298 366.928 230.517 367.169 230.517H369.802C370.043 230.517 370.238 230.298 370.238 230.028V228.645C370.238 228.375 370.043 228.156 369.802 228.156Z" fill="#E6E6E6"/>
    <path d="M376.811 228.156H374.178C373.937 228.156 373.742 228.375 373.742 228.645V230.028C373.742 230.298 373.937 230.517 374.178 230.517H376.811C377.052 230.517 377.247 230.298 377.247 230.028V228.645C377.247 228.375 377.052 228.156 376.811 228.156Z" fill="#E6E6E6"/>
    <path d="M383.82 228.156H381.186C380.946 228.156 380.751 228.375 380.751 228.645V230.028C380.751 230.298 380.946 230.517 381.186 230.517H383.82C384.06 230.517 384.255 230.298 384.255 230.028V228.645C384.255 228.375 384.06 228.156 383.82 228.156Z" fill="#E6E6E6"/>
    <path d="M390.829 228.156H388.195C387.955 228.156 387.76 228.375 387.76 228.645V230.028C387.76 230.298 387.955 230.517 388.195 230.517H390.829C391.069 230.517 391.264 230.298 391.264 230.028V228.645C391.264 228.375 391.069 228.156 390.829 228.156Z" fill="#E6E6E6"/>
    <path d="M397.838 228.156H395.204C394.964 228.156 394.769 228.375 394.769 228.645V230.028C394.769 230.298 394.964 230.517 395.204 230.517H397.838C398.078 230.517 398.273 230.298 398.273 230.028V228.645C398.273 228.375 398.078 228.156 397.838 228.156Z" fill="#E6E6E6"/>
    <path d="M404.846 228.156H402.213C401.972 228.156 401.777 228.375 401.777 228.645V230.028C401.777 230.298 401.972 230.517 402.213 230.517H404.846C405.087 230.517 405.282 230.298 405.282 230.028V228.645C405.282 228.375 405.087 228.156 404.846 228.156Z" fill="#E6E6E6"/>
    <path d="M411.855 228.156H409.222C408.981 228.156 408.786 228.375 408.786 228.645V230.028C408.786 230.298 408.981 230.517 409.222 230.517H411.855C412.096 230.517 412.291 230.298 412.291 230.028V228.645C412.291 228.375 412.096 228.156 411.855 228.156Z" fill="#E6E6E6"/>
    <path d="M418.865 228.156H416.231C415.991 228.156 415.796 228.375 415.796 228.645V230.028C415.796 230.298 415.991 230.517 416.231 230.517H418.865C419.105 230.517 419.3 230.298 419.3 230.028V228.645C419.3 228.375 419.105 228.156 418.865 228.156Z" fill="#E6E6E6"/>
    <path d="M313.648 232.092H311.015C310.774 232.092 310.579 232.311 310.579 232.581V233.964C310.579 234.234 310.774 234.452 311.015 234.452H313.648C313.889 234.452 314.084 234.234 314.084 233.964V232.581C314.084 232.311 313.889 232.092 313.648 232.092Z" fill="#E6E6E6"/>
    <path d="M320.657 232.092H318.023C317.783 232.092 317.588 232.311 317.588 232.581V233.964C317.588 234.234 317.783 234.452 318.023 234.452H320.657C320.897 234.452 321.092 234.234 321.092 233.964V232.581C321.092 232.311 320.897 232.092 320.657 232.092Z" fill="#E6E6E6"/>
    <path d="M327.666 232.092H325.032C324.792 232.092 324.597 232.311 324.597 232.581V233.964C324.597 234.234 324.792 234.452 325.032 234.452H327.666C327.906 234.452 328.101 234.234 328.101 233.964V232.581C328.101 232.311 327.906 232.092 327.666 232.092Z" fill="#E6E6E6"/>
    <path d="M334.674 232.092H332.041C331.8 232.092 331.605 232.311 331.605 232.581V233.964C331.605 234.234 331.8 234.452 332.041 234.452H334.674C334.915 234.452 335.11 234.234 335.11 233.964V232.581C335.11 232.311 334.915 232.092 334.674 232.092Z" fill="#E6E6E6"/>
    <path d="M341.683 232.092H339.05C338.809 232.092 338.614 232.311 338.614 232.581V233.964C338.614 234.234 338.809 234.452 339.05 234.452H341.683C341.924 234.452 342.119 234.234 342.119 233.964V232.581C342.119 232.311 341.924 232.092 341.683 232.092Z" fill="#E6E6E6"/>
    <path d="M348.692 232.092H346.059C345.818 232.092 345.623 232.311 345.623 232.581V233.964C345.623 234.234 345.818 234.452 346.059 234.452H348.692C348.933 234.452 349.128 234.234 349.128 233.964V232.581C349.128 232.311 348.933 232.092 348.692 232.092Z" fill="#E6E6E6"/>
    <path d="M355.702 232.092H353.068C352.828 232.092 352.633 232.311 352.633 232.581V233.964C352.633 234.234 352.828 234.452 353.068 234.452H355.702C355.942 234.452 356.137 234.234 356.137 233.964V232.581C356.137 232.311 355.942 232.092 355.702 232.092Z" fill="#E6E6E6"/>
    <path d="M362.711 232.092H360.077C359.837 232.092 359.642 232.311 359.642 232.581V233.964C359.642 234.234 359.837 234.452 360.077 234.452H362.711C362.951 234.452 363.146 234.234 363.146 233.964V232.581C363.146 232.311 362.951 232.092 362.711 232.092Z" fill="#E6E6E6"/>
    <path d="M369.719 232.092H367.086C366.845 232.092 366.65 232.311 366.65 232.581V233.964C366.65 234.234 366.845 234.452 367.086 234.452H369.719C369.96 234.452 370.155 234.234 370.155 233.964V232.581C370.155 232.311 369.96 232.092 369.719 232.092Z" fill="#E6E6E6"/>
    <path d="M376.728 232.092H374.095C373.854 232.092 373.659 232.311 373.659 232.581V233.964C373.659 234.234 373.854 234.452 374.095 234.452H376.728C376.969 234.452 377.164 234.234 377.164 233.964V232.581C377.164 232.311 376.969 232.092 376.728 232.092Z" fill="#E6E6E6"/>
    <path d="M383.737 232.092H381.103C380.863 232.092 380.668 232.311 380.668 232.581V233.964C380.668 234.234 380.863 234.452 381.103 234.452H383.737C383.977 234.452 384.172 234.234 384.172 233.964V232.581C384.172 232.311 383.977 232.092 383.737 232.092Z" fill="#E6E6E6"/>
    <path d="M390.746 232.092H388.112C387.872 232.092 387.677 232.311 387.677 232.581V233.964C387.677 234.234 387.872 234.452 388.112 234.452H390.746C390.986 234.452 391.181 234.234 391.181 233.964V232.581C391.181 232.311 390.986 232.092 390.746 232.092Z" fill="#E6E6E6"/>
    <path d="M397.754 232.092H395.121C394.881 232.092 394.686 232.311 394.686 232.581V233.964C394.686 234.234 394.881 234.452 395.121 234.452H397.754C397.995 234.452 398.19 234.234 398.19 233.964V232.581C398.19 232.311 397.995 232.092 397.754 232.092Z" fill="#E6E6E6"/>
    <path d="M404.764 232.092H402.131C401.89 232.092 401.695 232.311 401.695 232.581V233.964C401.695 234.234 401.89 234.452 402.131 234.452H404.764C405.005 234.452 405.2 234.234 405.2 233.964V232.581C405.2 232.311 405.005 232.092 404.764 232.092Z" fill="#E6E6E6"/>
    <path d="M411.773 232.092H409.14C408.899 232.092 408.704 232.311 408.704 232.581V233.964C408.704 234.234 408.899 234.452 409.14 234.452H411.773C412.014 234.452 412.209 234.234 412.209 233.964V232.581C412.209 232.311 412.014 232.092 411.773 232.092Z" fill="#E6E6E6"/>
    <path d="M506.069 326H503.436C503.195 326 503 326.219 503 326.489V327.872C503 328.142 503.195 328.361 503.436 328.361H506.069C506.309 328.361 506.504 328.142 506.504 327.872V326.489C506.504 326.219 506.309 326 506.069 326Z" fill="#E6E6E6"/>
    <path d="M371.822 236.812H344.657C344.417 236.812 344.222 237.031 344.222 237.301V238.684C344.222 238.954 344.417 239.173 344.657 239.173H371.822C372.062 239.173 372.257 238.954 372.257 238.684V237.301C372.257 237.031 372.062 236.812 371.822 236.812Z" fill="#E6E6E6"/>
    <path d="M449.512 46.6858H270.557C270.164 46.6761 269.853 46.3105 269.862 45.8693C269.87 45.4417 270.177 45.0973 270.557 45.0879H449.512C449.905 45.0976 450.216 45.4632 450.208 45.9044C450.199 46.332 449.893 46.6764 449.512 46.6858Z" fill="#CACACA"/>
    <path d="M282.739 41.0089C285.042 41.0089 286.91 38.8658 286.91 36.2222C286.91 33.5786 285.042 31.4355 282.739 31.4355C280.436 31.4355 278.568 33.5786 278.568 36.2222C278.568 38.8658 280.436 41.0089 282.739 41.0089Z" fill="#CCCCCC"/>
    <path d="M297.147 41.0089C299.451 41.0089 301.318 38.8658 301.318 36.2222C301.318 33.5786 299.451 31.4355 297.147 31.4355C294.844 31.4355 292.977 33.5786 292.977 36.2222C292.977 38.8658 294.844 41.0089 297.147 41.0089Z" fill="#CCCCCC"/>
    <path d="M311.554 41.0089C313.858 41.0089 315.725 38.8658 315.725 36.2222C315.725 33.5786 313.858 31.4355 311.554 31.4355C309.251 31.4355 307.384 33.5786 307.384 36.2222C307.384 38.8658 309.251 41.0089 311.554 41.0089Z" fill="#CCCCCC"/>
    <path d="M359.852 58.8013L359.273 56.9054L433.19 13.7871L433.767 15.683L359.852 58.8013Z" fill="#3F3D56"/>
    <path d="M582.874 138.665L582.296 136.769L626.774 93.8691L627.351 95.7641L582.874 138.665Z" fill="#3F3D56"/>
    <path d="M497.421 148.651L423.504 105.533L424.082 103.637L497.998 146.755L497.421 148.651Z" fill="#3F3D56"/>
    <path d="M535.258 118.648L491.925 38.7791L493.294 37.4941L536.626 117.363L535.258 118.648Z" fill="#3F3D56"/>
    <path d="M569.076 14.5769L526.874 14.3585V12.3555L569.076 12.5738V14.5769Z" fill="#3F3D56"/>
    <path d="M645.525 27.001H598.245C591.84 27.001 586.647 21.1717 586.647 13.981C586.647 6.7902 591.84 0.960938 598.245 0.960938H645.525C651.93 0.960938 657.122 6.7902 657.122 13.981C657.122 21.1717 651.93 27.001 645.525 27.001Z" fill="#48A6A7"/>
    <path d="M704.403 103.118H657.123C650.718 103.118 645.525 97.2889 645.525 90.0981C645.525 82.9074 650.718 77.0781 657.123 77.0781H704.403C710.808 77.0781 716 82.9074 716 90.0981C716 97.2889 710.808 103.118 704.403 103.118Z" fill="#48A6A7"/>
    <path d="M627.954 156.795L585.752 156.577V154.574L627.954 154.792V156.795Z" fill="#3F3D56"/>
    <path d="M704.403 169.22H657.123C650.718 169.22 645.525 163.39 645.525 156.2C645.525 149.009 650.718 143.18 657.123 143.18H704.403C710.808 143.18 716 149.009 716 156.2C716 163.39 710.808 169.22 704.403 169.22Z" fill="#48A6A7"/>
    <path d="M566.129 160.247H518.848C512.443 160.247 507.251 154.418 507.251 147.227C507.251 140.036 512.443 134.207 518.848 134.207H566.129C572.534 134.207 577.726 140.036 577.726 147.227C577.726 154.418 572.534 160.247 566.129 160.247Z" fill="#48A6A7"/>
    <path d="M501.899 26.04H454.619C448.214 26.04 443.021 20.2108 443.021 13.02C443.021 5.82927 448.214 0 454.619 0H501.899C508.304 0 513.496 5.82927 513.496 13.02C513.496 20.2108 508.304 26.04 501.899 26.04Z" fill="#48A6A7"/>
    <path d="M275.907 249.564H222.382C218.44 249.564 215.245 253.152 215.245 257.577C215.245 262.002 218.44 265.589 222.382 265.589H242.008V327.685H256.281V265.589H275.907C279.849 265.589 283.044 262.002 283.044 257.577C283.044 253.152 279.849 249.564 275.907 249.564Z" fill="#3F3D56"/>
    <path d="M311.235 362.073H168.07C139.382 361.956 115.11 338.236 111.051 306.352L105.983 285.424C95.4942 242.057 79.5173 200.604 58.5409 162.332C48.9533 144.851 44.0186 127.93 55.2269 111.638C55.3223 111.5 55.4162 111.363 55.5084 111.228C64.4981 98.0917 109.243 95.248 123.829 94.6949C124.406 94.6728 124.984 94.6619 125.565 94.6621H214.612C215.193 94.6621 215.771 94.6731 216.347 94.6949C232.367 95.2192 246.838 105.574 254.025 121.657C261.695 138.077 260.716 157.898 251.478 173.266C220.198 226.018 210.621 259.096 220.426 280.516C229.91 301.236 258.982 311.829 311.917 313.853C326.143 314.397 332.671 326.833 332.717 338.157C332.761 349.188 326.485 361.368 312.598 362.041C312.147 362.063 311.692 362.073 311.235 362.073Z" fill="#3F3D56"/>
    <path d="M192.391 504.793H245.916C249.857 504.793 253.053 501.206 253.053 496.781C253.053 492.356 249.857 488.769 245.916 488.769H226.29V353.561H212.017V488.769H192.391C188.449 488.769 185.254 492.356 185.254 496.781C185.254 501.206 188.449 504.793 192.391 504.793Z" fill="#3F3D56"/>
    <path d="M240.836 450.285L250.057 455.908L274.466 418.019L260.856 409.719L240.836 450.285Z" fill="#F7B686"/>
    <path d="M245.275 436.783L262.014 442.668L259.349 450.541L270.828 469.245C272.296 471.637 271.759 474.913 269.629 476.562C268.361 477.543 266.744 477.762 265.305 477.148L245.818 468.836L245.095 459.615L241.148 466.844L233.801 463.71L245.275 436.783Z" fill="#2F2E41"/>
    <path d="M264.134 68.1807C264.959 74.5378 261.039 80.4429 255.376 81.3702C254.773 81.469 254.162 81.5078 253.553 81.4861L218.002 166.412L206.852 148.955L243.449 68.6508C244.011 62.2226 249.108 57.5232 254.834 58.1545C259.625 58.6827 263.47 62.8277 264.134 68.1807Z" fill="#F7B686"/>
    <path d="M146.155 183.583C146.155 183.583 145.202 198.42 160.147 201.33C175.093 204.24 215.046 175.875 221.607 171.52C228.169 167.165 240.396 112.369 240.396 112.369L229.762 92.1758C216.633 110.821 206.323 128.015 205.697 140.22L146.155 183.583Z" fill="#48A6A7"/>
    <path d="M163.408 234.689L166.636 250.259C166.636 250.259 166.668 264.616 168.932 267.263C171.181 269.898 220.634 264.608 220.634 264.608C220.634 264.608 215.391 241.472 215.46 223.967L163.408 234.689Z" fill="#F7B686"/>
    <path d="M267.878 433.848L250.037 422.831C249.697 396.766 263.662 361.493 280.225 324.547C243.182 331.699 208.236 333.991 178.01 325.339C167.684 322.277 161.462 310.476 164.037 298.84C164.155 298.291 164.291 297.748 164.445 297.21C168.063 284.819 159.951 277.051 167.412 263.422C187.035 255.899 205.676 253.774 222.722 260.418L233.402 286.93L286.341 279.239C297.045 277.802 306.761 286.38 308.04 298.398C308.046 298.453 308.052 298.508 308.057 298.562C308.129 299.208 308.175 299.855 308.197 300.506C297.493 356.845 285.49 407.539 267.878 433.848Z" fill="#2F2E41"/>
    <path d="M156.223 136.114L176.617 134.762C178.38 134.645 180.015 135.797 180.688 137.63L186.451 153.315L210.404 175.542C210.404 175.542 219.888 189.091 219.91 206.589C219.932 224.087 223.274 264.588 223.274 264.588C223.274 264.588 209.434 242.715 200.891 248.533C199.437 249.522 198.926 251.546 197.404 252.569C196.644 253.079 194.89 252.583 194.123 253.094C182.351 260.94 170.074 268.605 168.927 267.261C166.675 264.622 163.943 251.138 163.943 251.138L145.275 174.133C143.226 165.929 144.551 157.126 148.887 150.134C150.191 148.073 151.558 146.539 152.828 146.285C155.679 145.604 154.162 138.429 156.223 136.114Z" fill="#48A6A7"/>
    <path d="M329.706 482.902L338.314 476.183L318.813 434.875L306.107 444.792L329.706 482.902Z" fill="#F7B686"/>
    <path d="M331.007 455.187L317.516 468.726C296.063 441.889 279.845 404.251 266.102 361.508C230.092 349.668 202.936 330.572 179.229 307.899C171.186 300.259 165.157 290.444 172.016 281.137C172.337 280.702 172.672 280.281 173.021 279.874C181.119 270.53 201.657 272.311 213.686 263.75L240.557 295.996L238.867 304.641L289.339 323.835C299.499 327.833 304.849 340.321 301.288 351.728C301.271 351.784 301.253 351.84 301.235 351.896C301.046 352.51 300.834 353.115 300.599 353.71L331.007 455.187Z" fill="#2F2E41"/>
    <path d="M186.338 330.18C181.07 327.67 178.613 320.841 180.848 314.928C181.087 314.297 181.374 313.692 181.707 313.118L135.538 234.896L154.617 233.268L196.725 310.092C201.326 313.971 202.254 321.302 198.8 326.467C195.909 330.789 190.757 332.324 186.338 330.18Z" fill="#F7B686"/>
    <path d="M159.792 157.052C159.792 157.052 148.995 148.431 139.017 161.256C129.038 174.082 129.871 227.144 129.778 235.701C129.748 238.381 133.195 244.163 137.943 250.841C140.075 253.84 142.469 257.019 144.929 260.179C146.352 262.007 145.125 265.814 146.555 267.591C147.976 269.359 152.054 269.098 153.406 270.739C159.824 278.526 165.037 284.454 165.037 284.454L185.93 284.742C186.166 267.305 175.53 251.741 161.866 236.698L159.792 157.052Z" fill="#48A6A7"/>
    <path d="M138.732 81.1325C136.754 82.7354 134.673 84.3867 132.259 84.7839C129.846 85.181 127.02 83.8711 126.352 81.237C125.535 78.0163 128.126 75.0838 130.454 72.9907L137.837 66.3535C139.189 65.0073 140.715 63.8994 142.363 63.0677C144.04 62.2393 145.962 62.3114 147.586 63.2637C149.199 64.4869 150.132 66.562 150.051 68.7457C149.946 70.8982 149.313 72.9763 148.222 74.7507C145.453 79.5969 141.042 82.9637 136.009 84.0718" fill="#2F2E41"/>
    <path d="M194.727 253.57H141.202C137.261 253.57 134.065 257.158 134.065 261.583C134.065 266.008 137.261 269.595 141.202 269.595H160.828V331.69H175.101V269.595H194.727C198.669 269.595 201.864 266.008 201.864 261.583C201.864 257.158 198.669 253.57 194.727 253.57Z" fill="#3F3D56"/>
    <path d="M142.011 64.3231C142.227 58.3157 136.525 53.5589 131.182 53.9349C125.839 54.3109 121.245 58.5304 118.215 63.4874C115.186 68.4401 113.366 74.1768 110.98 79.5544C108.594 84.9319 105.416 90.1971 100.674 92.9838C95.9323 95.7663 89.3326 95.2698 86.0555 90.519C83.9889 94.0375 83.5394 98.4511 84.8453 102.403C86.1869 106.303 88.6888 109.562 91.9269 111.628C93.2157 112.486 94.5924 113.165 96.0269 113.652C96.6184 111.859 97.4506 110.179 98.4946 108.669C98.023 110.457 97.843 112.325 97.9633 114.184C100.174 114.66 102.449 114.62 104.645 114.066C109.019 112.968 112.675 109.62 114.513 105.031C116.517 99.7051 115.497 93.6327 115.925 87.8715C116.35 82.1092 119.443 75.5312 124.593 75.4372C128.515 75.3648 127.996 75.7278 130.481 79.1347" fill="#2F2E41"/>
    <path d="M177.625 95.8897C177.625 110.271 167.24 121.93 154.431 121.93C141.621 121.93 129.452 105.263 129.452 90.882C129.452 76.5004 141.621 69.8496 154.431 69.8496C167.24 69.8496 177.625 81.5081 177.625 95.8897Z" fill="#2F2E41"/>
    <path d="M165.861 127.096C177.834 124.346 185.554 111.219 183.104 97.777C180.654 84.3349 168.962 75.6677 156.989 78.4182C145.016 81.1687 137.296 94.2954 139.746 107.737C142.195 121.179 153.888 129.847 165.861 127.096Z" fill="#F7B686"/>
    <path d="M189.222 98.8944C182.671 100.902 176.058 103.007 173.503 98.8944C173.007 96.1672 172.067 93.5663 170.729 91.2226C170.477 93.8473 169.929 96.4254 169.097 98.8944C160.821 100.914 153.086 101.397 146.402 98.8944C145.483 100.761 144.949 102.835 144.841 104.964C144.51 104.731 144.164 104.526 143.806 104.353C143.376 104.08 142.862 104.029 142.396 104.213C142.074 104.431 141.86 104.804 141.816 105.224C141.772 105.642 141.79 106.065 141.87 106.476C141.964 107.909 142.345 109.299 142.985 110.542C143.497 111.408 144.31 111.993 145.224 112.155C146.152 118.014 153.539 125.936 153.539 125.936C131.236 126.938 131.236 109.951 131.236 93.8867L133.913 87.8774H142.833V74.8574H167.812C179.635 74.8609 189.219 85.6206 189.222 98.8944Z" fill="#2F2E41"/>
    <path d="M401.417 148.227H324.739C318.079 148.219 312.682 142.16 312.675 134.683V77.6419C312.682 70.1651 318.079 64.106 324.739 64.0977H401.417C408.076 64.106 413.473 70.1651 413.481 77.6419V134.683C413.473 142.16 408.076 148.219 401.417 148.227ZM324.739 66.1007C319.064 66.108 314.465 71.2709 314.459 77.6419V134.683C314.465 141.054 319.064 146.217 324.739 146.224H401.417C407.091 146.217 411.69 141.054 411.697 134.683V77.6419C411.69 71.2709 407.091 66.108 401.417 66.1007L324.739 66.1007Z" fill="#E6E6E6"/>
    <path d="M347.458 82.127H326.948V84.13H347.458V82.127Z" fill="#E6E6E6"/>
    <path d="M372.445 90.1387H326.948V92.1418H372.445V90.1387Z" fill="#E6E6E6"/>
    <path d="M372.445 97.1504H326.948V99.1535H372.445V97.1504Z" fill="#E6E6E6"/>
    <path d="M384.934 104.16H326.948V106.163H384.934V104.16Z" fill="#E6E6E6"/>
    <path d="M357.279 111.172H326.948V113.175H357.279V111.172Z" fill="#E6E6E6"/>
    <path d="M382.258 118.182H326.948V120.185H382.258V118.182Z" fill="#E6E6E6"/>
    <path d="M336.761 125.193H326.948V127.196H336.761V125.193Z" fill="#E6E6E6"/>
    <path d="M326.28 39.0181C326.193 39.0181 326.107 38.9804 326.042 38.9054L324.138 36.7209C324.011 36.5754 324.011 36.3427 324.138 36.1972L326.042 34.0129C326.171 33.8651 326.382 33.8627 326.513 34.007C326.645 34.1517 326.647 34.3888 326.518 34.5366L324.843 36.4591L326.518 38.3817C326.647 38.5295 326.645 38.7667 326.513 38.9113C326.448 38.9826 326.364 39.0181 326.28 39.0181Z" fill="#CCCCCC"/>
    <path d="M329.479 39.0184C329.395 39.0184 329.311 38.9829 329.246 38.9116C329.114 38.7669 329.112 38.5299 329.241 38.382L330.916 36.4593L329.241 34.5369C329.112 34.3891 329.114 34.1519 329.246 34.0073C329.377 33.8624 329.589 33.8652 329.718 34.0131L331.621 36.1975C331.748 36.343 331.748 36.5756 331.621 36.7212L329.718 38.9057C329.652 38.9807 329.566 39.0184 329.479 39.0184Z" fill="#CCCCCC"/>
    <path d="M429.057 33.5957H425.518C425.114 33.5957 424.787 33.9627 424.787 34.4159V38.3932C424.787 38.8464 425.114 39.2134 425.518 39.2134H429.057C429.461 39.2134 429.791 38.8464 429.791 38.3932V34.4159C429.791 33.9627 429.461 33.5957 429.057 33.5957Z" fill="#CCCCCC"/>
    <path d="M420.383 33.5957H416.844C416.44 33.5957 416.113 33.9627 416.113 34.4159V38.3932C416.113 38.8464 416.44 39.2134 416.844 39.2134H420.383C420.787 39.2134 421.117 38.8464 421.117 38.3932V34.4159C421.117 33.9627 420.787 33.5957 420.383 33.5957Z" fill="#CCCCCC"/>
    <path d="M437.23 33.7832H433.69C433.287 33.7832 432.96 34.1502 432.96 34.6034V38.5807C432.96 39.0339 433.287 39.4009 433.69 39.4009H437.23C437.633 39.4009 437.964 39.0339 437.964 38.5807V34.6034C437.964 34.1502 437.633 33.7832 437.23 33.7832Z" fill="#CCCCCC"/>
    <path d="M383.882 35.2969H355.591C355.097 35.2969 354.7 35.7463 354.7 36.2968C354.7 36.8474 355.097 37.2968 355.591 37.2968H383.882C384.372 37.2968 384.773 36.8474 384.773 36.2968C384.773 35.7463 384.372 35.2969 383.882 35.2969Z" fill="#CCCCCC"/>
    </g>
    <defs>
    <clipPath id="clip0_1054_684">
    <rect width="716" height="508" fill="white"/>
    </clipPath>
    </defs>
    </svg>
    